<mxfile host="app.diagrams.net" agent="Mozilla/5.0 (Windows NT 10.0; Win64; x64) AppleWebKit/537.36 (KHTML, like Gecko) Chrome/132.0.0.0 Safari/537.36" version="26.0.10">
  <diagram name="Página-1" id="J5tbYUY--FqO57YTsxfp">
    <mxGraphModel dx="1050" dy="565" grid="1" gridSize="5" guides="1" tooltips="1" connect="1" arrows="1" fold="1" page="1" pageScale="1" pageWidth="827" pageHeight="1169" math="0" shadow="0">
      <root>
        <mxCell id="0" />
        <mxCell id="1" parent="0" />
        <mxCell id="n92__l8IA7T7h4lLXl1T-9" value="" style="rounded=0;whiteSpace=wrap;html=1;" parent="1" vertex="1">
          <mxGeometry x="355" y="50" width="63" height="30" as="geometry" />
        </mxCell>
        <mxCell id="n92__l8IA7T7h4lLXl1T-2" value="" style="rounded=0;whiteSpace=wrap;html=1;" parent="1" vertex="1">
          <mxGeometry x="40" y="50" width="378" height="30" as="geometry" />
        </mxCell>
        <mxCell id="n92__l8IA7T7h4lLXl1T-3" value="Nome:&lt;u&gt;&amp;nbsp; &amp;nbsp; &amp;nbsp; &amp;nbsp; &amp;nbsp; &amp;nbsp; &amp;nbsp; &amp;nbsp; &amp;nbsp; &amp;nbsp; &amp;nbsp; &amp;nbsp; &amp;nbsp; &amp;nbsp; &amp;nbsp; &amp;nbsp; &amp;nbsp; &amp;nbsp; &amp;nbsp; &amp;nbsp; &amp;nbsp; &amp;nbsp; &amp;nbsp; &amp;nbsp; &amp;nbsp; &amp;nbsp; &amp;nbsp; &amp;nbsp; &amp;nbsp; &amp;nbsp; &amp;nbsp; &amp;nbsp; &amp;nbsp; &amp;nbsp; &amp;nbsp; &amp;nbsp; &amp;nbsp; &amp;nbsp; &amp;nbsp; &amp;nbsp; &amp;nbsp; &amp;nbsp; &amp;nbsp; &amp;nbsp; &amp;nbsp; &amp;nbsp; &amp;nbsp; &amp;nbsp; &amp;nbsp; &amp;nbsp; &amp;nbsp; &amp;nbsp; &amp;nbsp; &amp;nbsp; &amp;nbsp; &amp;nbsp; &amp;nbsp; &amp;nbsp; &amp;nbsp; &amp;nbsp; &amp;nbsp; &amp;nbsp; &amp;nbsp; &amp;nbsp; &amp;nbsp; &amp;nbsp; &amp;nbsp; &amp;nbsp; &amp;nbsp; &amp;nbsp; &amp;nbsp; &amp;nbsp; &amp;nbsp; &amp;nbsp; &amp;nbsp; &amp;nbsp; &amp;nbsp; &amp;nbsp; &amp;nbsp; &amp;nbsp; &amp;nbsp; &amp;nbsp; &amp;nbsp; &amp;nbsp; &amp;nbsp; &amp;nbsp; &amp;nbsp; &amp;nbsp; &amp;nbsp; &amp;nbsp; &amp;nbsp; &amp;nbsp; &amp;nbsp; &amp;nbsp; &amp;nbsp; &amp;nbsp; &amp;nbsp; &amp;nbsp; &amp;nbsp; &amp;nbsp; &amp;nbsp; &amp;nbsp; &amp;nbsp; &amp;nbsp; &amp;nbsp; &amp;nbsp; &amp;nbsp;&amp;nbsp;&lt;/u&gt;" style="text;html=1;align=left;verticalAlign=middle;whiteSpace=wrap;rounded=0;" parent="1" vertex="1">
          <mxGeometry x="40" y="20" width="780" height="30" as="geometry" />
        </mxCell>
        <mxCell id="n92__l8IA7T7h4lLXl1T-5" value="Número da prova:" style="rounded=0;whiteSpace=wrap;html=1;" parent="1" vertex="1">
          <mxGeometry x="40" y="50" width="126" height="30" as="geometry" />
        </mxCell>
        <mxCell id="n92__l8IA7T7h4lLXl1T-6" value="" style="rounded=0;whiteSpace=wrap;html=1;" parent="1" vertex="1">
          <mxGeometry x="166" y="50" width="63" height="30" as="geometry" />
        </mxCell>
        <mxCell id="n92__l8IA7T7h4lLXl1T-7" value="" style="rounded=0;whiteSpace=wrap;html=1;" parent="1" vertex="1">
          <mxGeometry x="229" y="50" width="63" height="30" as="geometry" />
        </mxCell>
        <mxCell id="n92__l8IA7T7h4lLXl1T-8" value="" style="rounded=0;whiteSpace=wrap;html=1;" parent="1" vertex="1">
          <mxGeometry x="292" y="50" width="63" height="30" as="geometry" />
        </mxCell>
        <mxCell id="n92__l8IA7T7h4lLXl1T-12" value="" style="rounded=0;whiteSpace=wrap;html=1;" parent="1" vertex="1">
          <mxGeometry x="40" y="80" width="756" height="1066" as="geometry" />
        </mxCell>
        <mxCell id="n92__l8IA7T7h4lLXl1T-14" value="B" style="rounded=0;whiteSpace=wrap;html=1;" parent="1" vertex="1">
          <mxGeometry x="166" y="80" width="63" height="41" as="geometry" />
        </mxCell>
        <mxCell id="n92__l8IA7T7h4lLXl1T-15" value="C" style="rounded=0;whiteSpace=wrap;html=1;" parent="1" vertex="1">
          <mxGeometry x="229" y="80" width="63" height="41" as="geometry" />
        </mxCell>
        <mxCell id="n92__l8IA7T7h4lLXl1T-16" value="D" style="rounded=0;whiteSpace=wrap;html=1;" parent="1" vertex="1">
          <mxGeometry x="292" y="80" width="63" height="41" as="geometry" />
        </mxCell>
        <mxCell id="n92__l8IA7T7h4lLXl1T-17" value="E" style="rounded=0;whiteSpace=wrap;html=1;" parent="1" vertex="1">
          <mxGeometry x="355" y="80" width="63" height="41" as="geometry" />
        </mxCell>
        <mxCell id="n92__l8IA7T7h4lLXl1T-18" value="Número" style="rounded=0;whiteSpace=wrap;html=1;" parent="1" vertex="1">
          <mxGeometry x="418" y="80" width="63" height="41" as="geometry" />
        </mxCell>
        <mxCell id="n92__l8IA7T7h4lLXl1T-19" value="Número" style="rounded=0;whiteSpace=wrap;html=1;" parent="1" vertex="1">
          <mxGeometry x="40" y="80" width="63" height="41" as="geometry" />
        </mxCell>
        <mxCell id="n92__l8IA7T7h4lLXl1T-20" value="&lt;div&gt;A&lt;/div&gt;" style="rounded=0;whiteSpace=wrap;html=1;" parent="1" vertex="1">
          <mxGeometry x="103" y="80" width="63" height="41" as="geometry" />
        </mxCell>
        <mxCell id="n92__l8IA7T7h4lLXl1T-21" value="B" style="rounded=0;whiteSpace=wrap;html=1;" parent="1" vertex="1">
          <mxGeometry x="544" y="80" width="63" height="41" as="geometry" />
        </mxCell>
        <mxCell id="n92__l8IA7T7h4lLXl1T-22" value="C" style="rounded=0;whiteSpace=wrap;html=1;" parent="1" vertex="1">
          <mxGeometry x="607" y="80" width="63" height="41" as="geometry" />
        </mxCell>
        <mxCell id="n92__l8IA7T7h4lLXl1T-23" value="D" style="rounded=0;whiteSpace=wrap;html=1;" parent="1" vertex="1">
          <mxGeometry x="670" y="80" width="63" height="41" as="geometry" />
        </mxCell>
        <mxCell id="n92__l8IA7T7h4lLXl1T-24" value="E" style="rounded=0;whiteSpace=wrap;html=1;" parent="1" vertex="1">
          <mxGeometry x="733" y="80" width="63" height="41" as="geometry" />
        </mxCell>
        <mxCell id="n92__l8IA7T7h4lLXl1T-27" value="A" style="rounded=0;whiteSpace=wrap;html=1;" parent="1" vertex="1">
          <mxGeometry x="481" y="80" width="63" height="41" as="geometry" />
        </mxCell>
        <mxCell id="n92__l8IA7T7h4lLXl1T-28" value="1" style="ellipse;whiteSpace=wrap;html=1;aspect=fixed;" parent="1" vertex="1">
          <mxGeometry x="187.5" y="55" width="20" height="20" as="geometry" />
        </mxCell>
        <mxCell id="n92__l8IA7T7h4lLXl1T-29" value="2" style="ellipse;whiteSpace=wrap;html=1;aspect=fixed;" parent="1" vertex="1">
          <mxGeometry x="250.5" y="55" width="20" height="20" as="geometry" />
        </mxCell>
        <mxCell id="n92__l8IA7T7h4lLXl1T-30" value="3" style="ellipse;whiteSpace=wrap;html=1;aspect=fixed;" parent="1" vertex="1">
          <mxGeometry x="313.5" y="55" width="20" height="20" as="geometry" />
        </mxCell>
        <mxCell id="n92__l8IA7T7h4lLXl1T-31" value="4" style="ellipse;whiteSpace=wrap;html=1;aspect=fixed;fillColor=#000000;" parent="1" vertex="1">
          <mxGeometry x="376.5" y="55" width="20" height="20" as="geometry" />
        </mxCell>
        <mxCell id="n92__l8IA7T7h4lLXl1T-32" value="" style="rounded=0;whiteSpace=wrap;html=1;" parent="1" vertex="1">
          <mxGeometry x="166" y="121" width="63" height="41" as="geometry" />
        </mxCell>
        <mxCell id="n92__l8IA7T7h4lLXl1T-33" value="" style="rounded=0;whiteSpace=wrap;html=1;" parent="1" vertex="1">
          <mxGeometry x="229" y="121" width="63" height="41" as="geometry" />
        </mxCell>
        <mxCell id="n92__l8IA7T7h4lLXl1T-34" value="" style="rounded=0;whiteSpace=wrap;html=1;" parent="1" vertex="1">
          <mxGeometry x="292" y="121" width="63" height="41" as="geometry" />
        </mxCell>
        <mxCell id="n92__l8IA7T7h4lLXl1T-35" value="" style="rounded=0;whiteSpace=wrap;html=1;" parent="1" vertex="1">
          <mxGeometry x="355" y="121" width="63" height="41" as="geometry" />
        </mxCell>
        <mxCell id="n92__l8IA7T7h4lLXl1T-36" value="1" style="rounded=0;whiteSpace=wrap;html=1;" parent="1" vertex="1">
          <mxGeometry x="40" y="121" width="63" height="41" as="geometry" />
        </mxCell>
        <mxCell id="n92__l8IA7T7h4lLXl1T-37" value="" style="rounded=0;whiteSpace=wrap;html=1;" parent="1" vertex="1">
          <mxGeometry x="103" y="121" width="63" height="41" as="geometry" />
        </mxCell>
        <mxCell id="n92__l8IA7T7h4lLXl1T-38" value="" style="rounded=0;whiteSpace=wrap;html=1;" parent="1" vertex="1">
          <mxGeometry x="544" y="121" width="63" height="41" as="geometry" />
        </mxCell>
        <mxCell id="n92__l8IA7T7h4lLXl1T-39" value="" style="rounded=0;whiteSpace=wrap;html=1;" parent="1" vertex="1">
          <mxGeometry x="607" y="121" width="63" height="41" as="geometry" />
        </mxCell>
        <mxCell id="n92__l8IA7T7h4lLXl1T-40" value="" style="rounded=0;whiteSpace=wrap;html=1;" parent="1" vertex="1">
          <mxGeometry x="670" y="121" width="63" height="41" as="geometry" />
        </mxCell>
        <mxCell id="n92__l8IA7T7h4lLXl1T-41" value="" style="rounded=0;whiteSpace=wrap;html=1;" parent="1" vertex="1">
          <mxGeometry x="733" y="121" width="63" height="41" as="geometry" />
        </mxCell>
        <mxCell id="n92__l8IA7T7h4lLXl1T-42" value="26" style="rounded=0;whiteSpace=wrap;html=1;" parent="1" vertex="1">
          <mxGeometry x="418" y="121" width="63" height="41" as="geometry" />
        </mxCell>
        <mxCell id="n92__l8IA7T7h4lLXl1T-43" value="" style="rounded=0;whiteSpace=wrap;html=1;" parent="1" vertex="1">
          <mxGeometry x="481" y="121" width="63" height="41" as="geometry" />
        </mxCell>
        <mxCell id="n92__l8IA7T7h4lLXl1T-44" value="" style="ellipse;whiteSpace=wrap;html=1;aspect=fixed;" parent="1" vertex="1">
          <mxGeometry x="124.5" y="131.5" width="20" height="20" as="geometry" />
        </mxCell>
        <mxCell id="n92__l8IA7T7h4lLXl1T-45" value="" style="ellipse;whiteSpace=wrap;html=1;aspect=fixed;" parent="1" vertex="1">
          <mxGeometry x="187.5" y="131.5" width="20" height="20" as="geometry" />
        </mxCell>
        <mxCell id="n92__l8IA7T7h4lLXl1T-46" value="" style="ellipse;whiteSpace=wrap;html=1;aspect=fixed;" parent="1" vertex="1">
          <mxGeometry x="250.5" y="131.5" width="20" height="20" as="geometry" />
        </mxCell>
        <mxCell id="n92__l8IA7T7h4lLXl1T-47" value="" style="ellipse;whiteSpace=wrap;html=1;aspect=fixed;" parent="1" vertex="1">
          <mxGeometry x="313.5" y="131.5" width="20" height="20" as="geometry" />
        </mxCell>
        <mxCell id="n92__l8IA7T7h4lLXl1T-48" value="" style="ellipse;whiteSpace=wrap;html=1;aspect=fixed;" parent="1" vertex="1">
          <mxGeometry x="376.5" y="131.5" width="20" height="20" as="geometry" />
        </mxCell>
        <mxCell id="n92__l8IA7T7h4lLXl1T-49" value="" style="ellipse;whiteSpace=wrap;html=1;aspect=fixed;" parent="1" vertex="1">
          <mxGeometry x="502.5" y="131.5" width="20" height="20" as="geometry" />
        </mxCell>
        <mxCell id="n92__l8IA7T7h4lLXl1T-50" value="" style="ellipse;whiteSpace=wrap;html=1;aspect=fixed;" parent="1" vertex="1">
          <mxGeometry x="565.5" y="131.5" width="20" height="20" as="geometry" />
        </mxCell>
        <mxCell id="n92__l8IA7T7h4lLXl1T-51" value="" style="ellipse;whiteSpace=wrap;html=1;aspect=fixed;" parent="1" vertex="1">
          <mxGeometry x="628.5" y="131.5" width="20" height="20" as="geometry" />
        </mxCell>
        <mxCell id="n92__l8IA7T7h4lLXl1T-52" value="" style="ellipse;whiteSpace=wrap;html=1;aspect=fixed;" parent="1" vertex="1">
          <mxGeometry x="691.5" y="131.5" width="20" height="20" as="geometry" />
        </mxCell>
        <mxCell id="n92__l8IA7T7h4lLXl1T-53" value="" style="ellipse;whiteSpace=wrap;html=1;aspect=fixed;" parent="1" vertex="1">
          <mxGeometry x="754.5" y="131.5" width="20" height="20" as="geometry" />
        </mxCell>
        <mxCell id="n92__l8IA7T7h4lLXl1T-582" value="" style="rounded=0;whiteSpace=wrap;html=1;" parent="1" vertex="1">
          <mxGeometry x="166" y="162" width="63" height="41" as="geometry" />
        </mxCell>
        <mxCell id="n92__l8IA7T7h4lLXl1T-583" value="" style="rounded=0;whiteSpace=wrap;html=1;" parent="1" vertex="1">
          <mxGeometry x="229" y="162" width="63" height="41" as="geometry" />
        </mxCell>
        <mxCell id="n92__l8IA7T7h4lLXl1T-584" value="" style="rounded=0;whiteSpace=wrap;html=1;" parent="1" vertex="1">
          <mxGeometry x="292" y="162" width="63" height="41" as="geometry" />
        </mxCell>
        <mxCell id="n92__l8IA7T7h4lLXl1T-585" value="" style="rounded=0;whiteSpace=wrap;html=1;" parent="1" vertex="1">
          <mxGeometry x="355" y="162" width="63" height="41" as="geometry" />
        </mxCell>
        <mxCell id="n92__l8IA7T7h4lLXl1T-586" value="2" style="rounded=0;whiteSpace=wrap;html=1;" parent="1" vertex="1">
          <mxGeometry x="40" y="162" width="63" height="41" as="geometry" />
        </mxCell>
        <mxCell id="n92__l8IA7T7h4lLXl1T-587" value="" style="rounded=0;whiteSpace=wrap;html=1;" parent="1" vertex="1">
          <mxGeometry x="103" y="162" width="63" height="41" as="geometry" />
        </mxCell>
        <mxCell id="n92__l8IA7T7h4lLXl1T-588" value="" style="rounded=0;whiteSpace=wrap;html=1;" parent="1" vertex="1">
          <mxGeometry x="544" y="162" width="63" height="41" as="geometry" />
        </mxCell>
        <mxCell id="n92__l8IA7T7h4lLXl1T-589" value="" style="rounded=0;whiteSpace=wrap;html=1;" parent="1" vertex="1">
          <mxGeometry x="607" y="162" width="63" height="41" as="geometry" />
        </mxCell>
        <mxCell id="n92__l8IA7T7h4lLXl1T-590" value="" style="rounded=0;whiteSpace=wrap;html=1;" parent="1" vertex="1">
          <mxGeometry x="670" y="162" width="63" height="41" as="geometry" />
        </mxCell>
        <mxCell id="n92__l8IA7T7h4lLXl1T-591" value="" style="rounded=0;whiteSpace=wrap;html=1;" parent="1" vertex="1">
          <mxGeometry x="733" y="162" width="63" height="41" as="geometry" />
        </mxCell>
        <mxCell id="n92__l8IA7T7h4lLXl1T-592" value="27" style="rounded=0;whiteSpace=wrap;html=1;" parent="1" vertex="1">
          <mxGeometry x="418" y="162" width="63" height="41" as="geometry" />
        </mxCell>
        <mxCell id="n92__l8IA7T7h4lLXl1T-593" value="" style="rounded=0;whiteSpace=wrap;html=1;" parent="1" vertex="1">
          <mxGeometry x="481" y="162" width="63" height="41" as="geometry" />
        </mxCell>
        <mxCell id="n92__l8IA7T7h4lLXl1T-594" value="" style="ellipse;whiteSpace=wrap;html=1;aspect=fixed;" parent="1" vertex="1">
          <mxGeometry x="124.5" y="172.5" width="20" height="20" as="geometry" />
        </mxCell>
        <mxCell id="n92__l8IA7T7h4lLXl1T-595" value="" style="ellipse;whiteSpace=wrap;html=1;aspect=fixed;" parent="1" vertex="1">
          <mxGeometry x="187.5" y="172.5" width="20" height="20" as="geometry" />
        </mxCell>
        <mxCell id="n92__l8IA7T7h4lLXl1T-596" value="" style="ellipse;whiteSpace=wrap;html=1;aspect=fixed;" parent="1" vertex="1">
          <mxGeometry x="250.5" y="172.5" width="20" height="20" as="geometry" />
        </mxCell>
        <mxCell id="n92__l8IA7T7h4lLXl1T-597" value="" style="ellipse;whiteSpace=wrap;html=1;aspect=fixed;" parent="1" vertex="1">
          <mxGeometry x="313.5" y="172.5" width="20" height="20" as="geometry" />
        </mxCell>
        <mxCell id="n92__l8IA7T7h4lLXl1T-598" value="" style="ellipse;whiteSpace=wrap;html=1;aspect=fixed;" parent="1" vertex="1">
          <mxGeometry x="376.5" y="172.5" width="20" height="20" as="geometry" />
        </mxCell>
        <mxCell id="n92__l8IA7T7h4lLXl1T-599" value="" style="ellipse;whiteSpace=wrap;html=1;aspect=fixed;" parent="1" vertex="1">
          <mxGeometry x="502.5" y="172.5" width="20" height="20" as="geometry" />
        </mxCell>
        <mxCell id="n92__l8IA7T7h4lLXl1T-600" value="" style="ellipse;whiteSpace=wrap;html=1;aspect=fixed;" parent="1" vertex="1">
          <mxGeometry x="565.5" y="172.5" width="20" height="20" as="geometry" />
        </mxCell>
        <mxCell id="n92__l8IA7T7h4lLXl1T-601" value="" style="ellipse;whiteSpace=wrap;html=1;aspect=fixed;" parent="1" vertex="1">
          <mxGeometry x="628.5" y="172.5" width="20" height="20" as="geometry" />
        </mxCell>
        <mxCell id="n92__l8IA7T7h4lLXl1T-602" value="" style="ellipse;whiteSpace=wrap;html=1;aspect=fixed;" parent="1" vertex="1">
          <mxGeometry x="691.5" y="172.5" width="20" height="20" as="geometry" />
        </mxCell>
        <mxCell id="n92__l8IA7T7h4lLXl1T-603" value="" style="ellipse;whiteSpace=wrap;html=1;aspect=fixed;" parent="1" vertex="1">
          <mxGeometry x="754.5" y="172.5" width="20" height="20" as="geometry" />
        </mxCell>
        <mxCell id="n92__l8IA7T7h4lLXl1T-604" value="" style="rounded=0;whiteSpace=wrap;html=1;" parent="1" vertex="1">
          <mxGeometry x="166" y="203" width="63" height="41" as="geometry" />
        </mxCell>
        <mxCell id="n92__l8IA7T7h4lLXl1T-605" value="" style="rounded=0;whiteSpace=wrap;html=1;" parent="1" vertex="1">
          <mxGeometry x="229" y="203" width="63" height="41" as="geometry" />
        </mxCell>
        <mxCell id="n92__l8IA7T7h4lLXl1T-606" value="" style="rounded=0;whiteSpace=wrap;html=1;" parent="1" vertex="1">
          <mxGeometry x="292" y="203" width="63" height="41" as="geometry" />
        </mxCell>
        <mxCell id="n92__l8IA7T7h4lLXl1T-607" value="" style="rounded=0;whiteSpace=wrap;html=1;" parent="1" vertex="1">
          <mxGeometry x="355" y="203" width="63" height="41" as="geometry" />
        </mxCell>
        <mxCell id="n92__l8IA7T7h4lLXl1T-608" value="3" style="rounded=0;whiteSpace=wrap;html=1;" parent="1" vertex="1">
          <mxGeometry x="40" y="203" width="63" height="41" as="geometry" />
        </mxCell>
        <mxCell id="n92__l8IA7T7h4lLXl1T-609" value="" style="rounded=0;whiteSpace=wrap;html=1;" parent="1" vertex="1">
          <mxGeometry x="103" y="203" width="63" height="41" as="geometry" />
        </mxCell>
        <mxCell id="n92__l8IA7T7h4lLXl1T-610" value="" style="rounded=0;whiteSpace=wrap;html=1;" parent="1" vertex="1">
          <mxGeometry x="544" y="203" width="63" height="41" as="geometry" />
        </mxCell>
        <mxCell id="n92__l8IA7T7h4lLXl1T-611" value="" style="rounded=0;whiteSpace=wrap;html=1;" parent="1" vertex="1">
          <mxGeometry x="607" y="203" width="63" height="41" as="geometry" />
        </mxCell>
        <mxCell id="n92__l8IA7T7h4lLXl1T-612" value="" style="rounded=0;whiteSpace=wrap;html=1;" parent="1" vertex="1">
          <mxGeometry x="670" y="203" width="63" height="41" as="geometry" />
        </mxCell>
        <mxCell id="n92__l8IA7T7h4lLXl1T-613" value="" style="rounded=0;whiteSpace=wrap;html=1;" parent="1" vertex="1">
          <mxGeometry x="733" y="203" width="63" height="41" as="geometry" />
        </mxCell>
        <mxCell id="n92__l8IA7T7h4lLXl1T-614" value="28" style="rounded=0;whiteSpace=wrap;html=1;" parent="1" vertex="1">
          <mxGeometry x="418" y="203" width="63" height="41" as="geometry" />
        </mxCell>
        <mxCell id="n92__l8IA7T7h4lLXl1T-615" value="" style="rounded=0;whiteSpace=wrap;html=1;" parent="1" vertex="1">
          <mxGeometry x="481" y="203" width="63" height="41" as="geometry" />
        </mxCell>
        <mxCell id="n92__l8IA7T7h4lLXl1T-616" value="" style="ellipse;whiteSpace=wrap;html=1;aspect=fixed;" parent="1" vertex="1">
          <mxGeometry x="124.5" y="213.5" width="20" height="20" as="geometry" />
        </mxCell>
        <mxCell id="n92__l8IA7T7h4lLXl1T-617" value="" style="ellipse;whiteSpace=wrap;html=1;aspect=fixed;" parent="1" vertex="1">
          <mxGeometry x="187.5" y="213.5" width="20" height="20" as="geometry" />
        </mxCell>
        <mxCell id="n92__l8IA7T7h4lLXl1T-618" value="" style="ellipse;whiteSpace=wrap;html=1;aspect=fixed;" parent="1" vertex="1">
          <mxGeometry x="250.5" y="213.5" width="20" height="20" as="geometry" />
        </mxCell>
        <mxCell id="n92__l8IA7T7h4lLXl1T-619" value="" style="ellipse;whiteSpace=wrap;html=1;aspect=fixed;" parent="1" vertex="1">
          <mxGeometry x="313.5" y="213.5" width="20" height="20" as="geometry" />
        </mxCell>
        <mxCell id="n92__l8IA7T7h4lLXl1T-620" value="" style="ellipse;whiteSpace=wrap;html=1;aspect=fixed;" parent="1" vertex="1">
          <mxGeometry x="376.5" y="213.5" width="20" height="20" as="geometry" />
        </mxCell>
        <mxCell id="n92__l8IA7T7h4lLXl1T-621" value="" style="ellipse;whiteSpace=wrap;html=1;aspect=fixed;" parent="1" vertex="1">
          <mxGeometry x="502.5" y="213.5" width="20" height="20" as="geometry" />
        </mxCell>
        <mxCell id="n92__l8IA7T7h4lLXl1T-622" value="" style="ellipse;whiteSpace=wrap;html=1;aspect=fixed;" parent="1" vertex="1">
          <mxGeometry x="565.5" y="213.5" width="20" height="20" as="geometry" />
        </mxCell>
        <mxCell id="n92__l8IA7T7h4lLXl1T-623" value="" style="ellipse;whiteSpace=wrap;html=1;aspect=fixed;" parent="1" vertex="1">
          <mxGeometry x="628.5" y="213.5" width="20" height="20" as="geometry" />
        </mxCell>
        <mxCell id="n92__l8IA7T7h4lLXl1T-624" value="" style="ellipse;whiteSpace=wrap;html=1;aspect=fixed;" parent="1" vertex="1">
          <mxGeometry x="691.5" y="213.5" width="20" height="20" as="geometry" />
        </mxCell>
        <mxCell id="n92__l8IA7T7h4lLXl1T-625" value="" style="ellipse;whiteSpace=wrap;html=1;aspect=fixed;" parent="1" vertex="1">
          <mxGeometry x="754.5" y="213.5" width="20" height="20" as="geometry" />
        </mxCell>
        <mxCell id="n92__l8IA7T7h4lLXl1T-626" value="" style="rounded=0;whiteSpace=wrap;html=1;" parent="1" vertex="1">
          <mxGeometry x="166" y="244" width="63" height="41" as="geometry" />
        </mxCell>
        <mxCell id="n92__l8IA7T7h4lLXl1T-627" value="" style="rounded=0;whiteSpace=wrap;html=1;" parent="1" vertex="1">
          <mxGeometry x="229" y="244" width="63" height="41" as="geometry" />
        </mxCell>
        <mxCell id="n92__l8IA7T7h4lLXl1T-628" value="" style="rounded=0;whiteSpace=wrap;html=1;" parent="1" vertex="1">
          <mxGeometry x="292" y="244" width="63" height="41" as="geometry" />
        </mxCell>
        <mxCell id="n92__l8IA7T7h4lLXl1T-629" value="" style="rounded=0;whiteSpace=wrap;html=1;" parent="1" vertex="1">
          <mxGeometry x="355" y="244" width="63" height="41" as="geometry" />
        </mxCell>
        <mxCell id="n92__l8IA7T7h4lLXl1T-630" value="4" style="rounded=0;whiteSpace=wrap;html=1;" parent="1" vertex="1">
          <mxGeometry x="40" y="244" width="63" height="41" as="geometry" />
        </mxCell>
        <mxCell id="n92__l8IA7T7h4lLXl1T-631" value="" style="rounded=0;whiteSpace=wrap;html=1;" parent="1" vertex="1">
          <mxGeometry x="103" y="244" width="63" height="41" as="geometry" />
        </mxCell>
        <mxCell id="n92__l8IA7T7h4lLXl1T-632" value="" style="rounded=0;whiteSpace=wrap;html=1;" parent="1" vertex="1">
          <mxGeometry x="544" y="244" width="63" height="41" as="geometry" />
        </mxCell>
        <mxCell id="n92__l8IA7T7h4lLXl1T-633" value="" style="rounded=0;whiteSpace=wrap;html=1;" parent="1" vertex="1">
          <mxGeometry x="607" y="244" width="63" height="41" as="geometry" />
        </mxCell>
        <mxCell id="n92__l8IA7T7h4lLXl1T-634" value="" style="rounded=0;whiteSpace=wrap;html=1;" parent="1" vertex="1">
          <mxGeometry x="670" y="244" width="63" height="41" as="geometry" />
        </mxCell>
        <mxCell id="n92__l8IA7T7h4lLXl1T-635" value="" style="rounded=0;whiteSpace=wrap;html=1;" parent="1" vertex="1">
          <mxGeometry x="733" y="244" width="63" height="41" as="geometry" />
        </mxCell>
        <mxCell id="n92__l8IA7T7h4lLXl1T-636" value="29" style="rounded=0;whiteSpace=wrap;html=1;" parent="1" vertex="1">
          <mxGeometry x="418" y="244" width="63" height="41" as="geometry" />
        </mxCell>
        <mxCell id="n92__l8IA7T7h4lLXl1T-637" value="" style="rounded=0;whiteSpace=wrap;html=1;" parent="1" vertex="1">
          <mxGeometry x="481" y="244" width="63" height="41" as="geometry" />
        </mxCell>
        <mxCell id="n92__l8IA7T7h4lLXl1T-638" value="" style="ellipse;whiteSpace=wrap;html=1;aspect=fixed;" parent="1" vertex="1">
          <mxGeometry x="124.5" y="254.5" width="20" height="20" as="geometry" />
        </mxCell>
        <mxCell id="n92__l8IA7T7h4lLXl1T-639" value="" style="ellipse;whiteSpace=wrap;html=1;aspect=fixed;" parent="1" vertex="1">
          <mxGeometry x="187.5" y="254.5" width="20" height="20" as="geometry" />
        </mxCell>
        <mxCell id="n92__l8IA7T7h4lLXl1T-640" value="" style="ellipse;whiteSpace=wrap;html=1;aspect=fixed;" parent="1" vertex="1">
          <mxGeometry x="250.5" y="254.5" width="20" height="20" as="geometry" />
        </mxCell>
        <mxCell id="n92__l8IA7T7h4lLXl1T-641" value="" style="ellipse;whiteSpace=wrap;html=1;aspect=fixed;" parent="1" vertex="1">
          <mxGeometry x="313.5" y="254.5" width="20" height="20" as="geometry" />
        </mxCell>
        <mxCell id="n92__l8IA7T7h4lLXl1T-642" value="" style="ellipse;whiteSpace=wrap;html=1;aspect=fixed;" parent="1" vertex="1">
          <mxGeometry x="376.5" y="254.5" width="20" height="20" as="geometry" />
        </mxCell>
        <mxCell id="n92__l8IA7T7h4lLXl1T-643" value="" style="ellipse;whiteSpace=wrap;html=1;aspect=fixed;" parent="1" vertex="1">
          <mxGeometry x="502.5" y="254.5" width="20" height="20" as="geometry" />
        </mxCell>
        <mxCell id="n92__l8IA7T7h4lLXl1T-644" value="" style="ellipse;whiteSpace=wrap;html=1;aspect=fixed;" parent="1" vertex="1">
          <mxGeometry x="565.5" y="254.5" width="20" height="20" as="geometry" />
        </mxCell>
        <mxCell id="n92__l8IA7T7h4lLXl1T-645" value="" style="ellipse;whiteSpace=wrap;html=1;aspect=fixed;" parent="1" vertex="1">
          <mxGeometry x="628.5" y="254.5" width="20" height="20" as="geometry" />
        </mxCell>
        <mxCell id="n92__l8IA7T7h4lLXl1T-646" value="" style="ellipse;whiteSpace=wrap;html=1;aspect=fixed;" parent="1" vertex="1">
          <mxGeometry x="691.5" y="254.5" width="20" height="20" as="geometry" />
        </mxCell>
        <mxCell id="n92__l8IA7T7h4lLXl1T-647" value="" style="ellipse;whiteSpace=wrap;html=1;aspect=fixed;" parent="1" vertex="1">
          <mxGeometry x="754.5" y="254.5" width="20" height="20" as="geometry" />
        </mxCell>
        <mxCell id="n92__l8IA7T7h4lLXl1T-648" value="" style="rounded=0;whiteSpace=wrap;html=1;" parent="1" vertex="1">
          <mxGeometry x="166" y="285" width="63" height="41" as="geometry" />
        </mxCell>
        <mxCell id="n92__l8IA7T7h4lLXl1T-649" value="" style="rounded=0;whiteSpace=wrap;html=1;" parent="1" vertex="1">
          <mxGeometry x="229" y="285" width="63" height="41" as="geometry" />
        </mxCell>
        <mxCell id="n92__l8IA7T7h4lLXl1T-650" value="" style="rounded=0;whiteSpace=wrap;html=1;" parent="1" vertex="1">
          <mxGeometry x="292" y="285" width="63" height="41" as="geometry" />
        </mxCell>
        <mxCell id="n92__l8IA7T7h4lLXl1T-651" value="" style="rounded=0;whiteSpace=wrap;html=1;" parent="1" vertex="1">
          <mxGeometry x="355" y="285" width="63" height="41" as="geometry" />
        </mxCell>
        <mxCell id="n92__l8IA7T7h4lLXl1T-652" value="5" style="rounded=0;whiteSpace=wrap;html=1;" parent="1" vertex="1">
          <mxGeometry x="40" y="285" width="63" height="41" as="geometry" />
        </mxCell>
        <mxCell id="n92__l8IA7T7h4lLXl1T-653" value="" style="rounded=0;whiteSpace=wrap;html=1;" parent="1" vertex="1">
          <mxGeometry x="103" y="285" width="63" height="41" as="geometry" />
        </mxCell>
        <mxCell id="n92__l8IA7T7h4lLXl1T-654" value="" style="rounded=0;whiteSpace=wrap;html=1;" parent="1" vertex="1">
          <mxGeometry x="544" y="285" width="63" height="41" as="geometry" />
        </mxCell>
        <mxCell id="n92__l8IA7T7h4lLXl1T-655" value="" style="rounded=0;whiteSpace=wrap;html=1;" parent="1" vertex="1">
          <mxGeometry x="607" y="285" width="63" height="41" as="geometry" />
        </mxCell>
        <mxCell id="n92__l8IA7T7h4lLXl1T-656" value="" style="rounded=0;whiteSpace=wrap;html=1;" parent="1" vertex="1">
          <mxGeometry x="670" y="285" width="63" height="41" as="geometry" />
        </mxCell>
        <mxCell id="n92__l8IA7T7h4lLXl1T-657" value="" style="rounded=0;whiteSpace=wrap;html=1;" parent="1" vertex="1">
          <mxGeometry x="733" y="285" width="63" height="41" as="geometry" />
        </mxCell>
        <mxCell id="n92__l8IA7T7h4lLXl1T-658" value="30" style="rounded=0;whiteSpace=wrap;html=1;" parent="1" vertex="1">
          <mxGeometry x="418" y="285" width="63" height="41" as="geometry" />
        </mxCell>
        <mxCell id="n92__l8IA7T7h4lLXl1T-659" value="" style="rounded=0;whiteSpace=wrap;html=1;" parent="1" vertex="1">
          <mxGeometry x="481" y="285" width="63" height="41" as="geometry" />
        </mxCell>
        <mxCell id="n92__l8IA7T7h4lLXl1T-660" value="" style="ellipse;whiteSpace=wrap;html=1;aspect=fixed;" parent="1" vertex="1">
          <mxGeometry x="124.5" y="295.5" width="20" height="20" as="geometry" />
        </mxCell>
        <mxCell id="n92__l8IA7T7h4lLXl1T-661" value="" style="ellipse;whiteSpace=wrap;html=1;aspect=fixed;" parent="1" vertex="1">
          <mxGeometry x="187.5" y="295.5" width="20" height="20" as="geometry" />
        </mxCell>
        <mxCell id="n92__l8IA7T7h4lLXl1T-662" value="" style="ellipse;whiteSpace=wrap;html=1;aspect=fixed;" parent="1" vertex="1">
          <mxGeometry x="250.5" y="295.5" width="20" height="20" as="geometry" />
        </mxCell>
        <mxCell id="n92__l8IA7T7h4lLXl1T-663" value="" style="ellipse;whiteSpace=wrap;html=1;aspect=fixed;" parent="1" vertex="1">
          <mxGeometry x="313.5" y="295.5" width="20" height="20" as="geometry" />
        </mxCell>
        <mxCell id="n92__l8IA7T7h4lLXl1T-664" value="" style="ellipse;whiteSpace=wrap;html=1;aspect=fixed;" parent="1" vertex="1">
          <mxGeometry x="376.5" y="295.5" width="20" height="20" as="geometry" />
        </mxCell>
        <mxCell id="n92__l8IA7T7h4lLXl1T-665" value="" style="ellipse;whiteSpace=wrap;html=1;aspect=fixed;" parent="1" vertex="1">
          <mxGeometry x="502.5" y="295.5" width="20" height="20" as="geometry" />
        </mxCell>
        <mxCell id="n92__l8IA7T7h4lLXl1T-666" value="" style="ellipse;whiteSpace=wrap;html=1;aspect=fixed;" parent="1" vertex="1">
          <mxGeometry x="565.5" y="295.5" width="20" height="20" as="geometry" />
        </mxCell>
        <mxCell id="n92__l8IA7T7h4lLXl1T-667" value="" style="ellipse;whiteSpace=wrap;html=1;aspect=fixed;" parent="1" vertex="1">
          <mxGeometry x="628.5" y="295.5" width="20" height="20" as="geometry" />
        </mxCell>
        <mxCell id="n92__l8IA7T7h4lLXl1T-668" value="" style="ellipse;whiteSpace=wrap;html=1;aspect=fixed;" parent="1" vertex="1">
          <mxGeometry x="691.5" y="295.5" width="20" height="20" as="geometry" />
        </mxCell>
        <mxCell id="n92__l8IA7T7h4lLXl1T-669" value="" style="ellipse;whiteSpace=wrap;html=1;aspect=fixed;" parent="1" vertex="1">
          <mxGeometry x="754.5" y="295.5" width="20" height="20" as="geometry" />
        </mxCell>
        <mxCell id="n92__l8IA7T7h4lLXl1T-670" value="" style="rounded=0;whiteSpace=wrap;html=1;" parent="1" vertex="1">
          <mxGeometry x="166" y="326" width="63" height="41" as="geometry" />
        </mxCell>
        <mxCell id="n92__l8IA7T7h4lLXl1T-671" value="" style="rounded=0;whiteSpace=wrap;html=1;" parent="1" vertex="1">
          <mxGeometry x="229" y="326" width="63" height="41" as="geometry" />
        </mxCell>
        <mxCell id="n92__l8IA7T7h4lLXl1T-672" value="" style="rounded=0;whiteSpace=wrap;html=1;" parent="1" vertex="1">
          <mxGeometry x="292" y="326" width="63" height="41" as="geometry" />
        </mxCell>
        <mxCell id="n92__l8IA7T7h4lLXl1T-673" value="" style="rounded=0;whiteSpace=wrap;html=1;" parent="1" vertex="1">
          <mxGeometry x="355" y="326" width="63" height="41" as="geometry" />
        </mxCell>
        <mxCell id="n92__l8IA7T7h4lLXl1T-674" value="6" style="rounded=0;whiteSpace=wrap;html=1;" parent="1" vertex="1">
          <mxGeometry x="40" y="326" width="63" height="41" as="geometry" />
        </mxCell>
        <mxCell id="n92__l8IA7T7h4lLXl1T-675" value="" style="rounded=0;whiteSpace=wrap;html=1;" parent="1" vertex="1">
          <mxGeometry x="103" y="326" width="63" height="41" as="geometry" />
        </mxCell>
        <mxCell id="n92__l8IA7T7h4lLXl1T-676" value="" style="rounded=0;whiteSpace=wrap;html=1;" parent="1" vertex="1">
          <mxGeometry x="544" y="326" width="63" height="41" as="geometry" />
        </mxCell>
        <mxCell id="n92__l8IA7T7h4lLXl1T-677" value="" style="rounded=0;whiteSpace=wrap;html=1;" parent="1" vertex="1">
          <mxGeometry x="607" y="326" width="63" height="41" as="geometry" />
        </mxCell>
        <mxCell id="n92__l8IA7T7h4lLXl1T-678" value="" style="rounded=0;whiteSpace=wrap;html=1;" parent="1" vertex="1">
          <mxGeometry x="670" y="326" width="63" height="41" as="geometry" />
        </mxCell>
        <mxCell id="n92__l8IA7T7h4lLXl1T-679" value="" style="rounded=0;whiteSpace=wrap;html=1;" parent="1" vertex="1">
          <mxGeometry x="733" y="326" width="63" height="41" as="geometry" />
        </mxCell>
        <mxCell id="n92__l8IA7T7h4lLXl1T-680" value="31" style="rounded=0;whiteSpace=wrap;html=1;" parent="1" vertex="1">
          <mxGeometry x="418" y="326" width="63" height="41" as="geometry" />
        </mxCell>
        <mxCell id="n92__l8IA7T7h4lLXl1T-681" value="" style="rounded=0;whiteSpace=wrap;html=1;" parent="1" vertex="1">
          <mxGeometry x="481" y="326" width="63" height="41" as="geometry" />
        </mxCell>
        <mxCell id="n92__l8IA7T7h4lLXl1T-682" value="" style="ellipse;whiteSpace=wrap;html=1;aspect=fixed;" parent="1" vertex="1">
          <mxGeometry x="124.5" y="336.5" width="20" height="20" as="geometry" />
        </mxCell>
        <mxCell id="n92__l8IA7T7h4lLXl1T-683" value="" style="ellipse;whiteSpace=wrap;html=1;aspect=fixed;" parent="1" vertex="1">
          <mxGeometry x="187.5" y="336.5" width="20" height="20" as="geometry" />
        </mxCell>
        <mxCell id="n92__l8IA7T7h4lLXl1T-684" value="" style="ellipse;whiteSpace=wrap;html=1;aspect=fixed;" parent="1" vertex="1">
          <mxGeometry x="250.5" y="336.5" width="20" height="20" as="geometry" />
        </mxCell>
        <mxCell id="n92__l8IA7T7h4lLXl1T-685" value="" style="ellipse;whiteSpace=wrap;html=1;aspect=fixed;" parent="1" vertex="1">
          <mxGeometry x="313.5" y="336.5" width="20" height="20" as="geometry" />
        </mxCell>
        <mxCell id="n92__l8IA7T7h4lLXl1T-686" value="" style="ellipse;whiteSpace=wrap;html=1;aspect=fixed;" parent="1" vertex="1">
          <mxGeometry x="376.5" y="336.5" width="20" height="20" as="geometry" />
        </mxCell>
        <mxCell id="n92__l8IA7T7h4lLXl1T-687" value="" style="ellipse;whiteSpace=wrap;html=1;aspect=fixed;" parent="1" vertex="1">
          <mxGeometry x="502.5" y="336.5" width="20" height="20" as="geometry" />
        </mxCell>
        <mxCell id="n92__l8IA7T7h4lLXl1T-688" value="" style="ellipse;whiteSpace=wrap;html=1;aspect=fixed;" parent="1" vertex="1">
          <mxGeometry x="565.5" y="336.5" width="20" height="20" as="geometry" />
        </mxCell>
        <mxCell id="n92__l8IA7T7h4lLXl1T-689" value="" style="ellipse;whiteSpace=wrap;html=1;aspect=fixed;" parent="1" vertex="1">
          <mxGeometry x="628.5" y="336.5" width="20" height="20" as="geometry" />
        </mxCell>
        <mxCell id="n92__l8IA7T7h4lLXl1T-690" value="" style="ellipse;whiteSpace=wrap;html=1;aspect=fixed;" parent="1" vertex="1">
          <mxGeometry x="691.5" y="336.5" width="20" height="20" as="geometry" />
        </mxCell>
        <mxCell id="n92__l8IA7T7h4lLXl1T-691" value="" style="ellipse;whiteSpace=wrap;html=1;aspect=fixed;" parent="1" vertex="1">
          <mxGeometry x="754.5" y="336.5" width="20" height="20" as="geometry" />
        </mxCell>
        <mxCell id="n92__l8IA7T7h4lLXl1T-692" value="" style="rounded=0;whiteSpace=wrap;html=1;" parent="1" vertex="1">
          <mxGeometry x="166" y="367" width="63" height="41" as="geometry" />
        </mxCell>
        <mxCell id="n92__l8IA7T7h4lLXl1T-693" value="" style="rounded=0;whiteSpace=wrap;html=1;" parent="1" vertex="1">
          <mxGeometry x="229" y="367" width="63" height="41" as="geometry" />
        </mxCell>
        <mxCell id="n92__l8IA7T7h4lLXl1T-694" value="" style="rounded=0;whiteSpace=wrap;html=1;" parent="1" vertex="1">
          <mxGeometry x="292" y="367" width="63" height="41" as="geometry" />
        </mxCell>
        <mxCell id="n92__l8IA7T7h4lLXl1T-695" value="" style="rounded=0;whiteSpace=wrap;html=1;" parent="1" vertex="1">
          <mxGeometry x="355" y="367" width="63" height="41" as="geometry" />
        </mxCell>
        <mxCell id="n92__l8IA7T7h4lLXl1T-696" value="7" style="rounded=0;whiteSpace=wrap;html=1;" parent="1" vertex="1">
          <mxGeometry x="40" y="367" width="63" height="41" as="geometry" />
        </mxCell>
        <mxCell id="n92__l8IA7T7h4lLXl1T-697" value="" style="rounded=0;whiteSpace=wrap;html=1;" parent="1" vertex="1">
          <mxGeometry x="103" y="367" width="63" height="41" as="geometry" />
        </mxCell>
        <mxCell id="n92__l8IA7T7h4lLXl1T-698" value="" style="rounded=0;whiteSpace=wrap;html=1;" parent="1" vertex="1">
          <mxGeometry x="544" y="367" width="63" height="41" as="geometry" />
        </mxCell>
        <mxCell id="n92__l8IA7T7h4lLXl1T-699" value="" style="rounded=0;whiteSpace=wrap;html=1;" parent="1" vertex="1">
          <mxGeometry x="607" y="367" width="63" height="41" as="geometry" />
        </mxCell>
        <mxCell id="n92__l8IA7T7h4lLXl1T-700" value="" style="rounded=0;whiteSpace=wrap;html=1;" parent="1" vertex="1">
          <mxGeometry x="670" y="367" width="63" height="41" as="geometry" />
        </mxCell>
        <mxCell id="n92__l8IA7T7h4lLXl1T-701" value="" style="rounded=0;whiteSpace=wrap;html=1;" parent="1" vertex="1">
          <mxGeometry x="733" y="367" width="63" height="41" as="geometry" />
        </mxCell>
        <mxCell id="n92__l8IA7T7h4lLXl1T-702" value="32" style="rounded=0;whiteSpace=wrap;html=1;" parent="1" vertex="1">
          <mxGeometry x="418" y="367" width="63" height="41" as="geometry" />
        </mxCell>
        <mxCell id="n92__l8IA7T7h4lLXl1T-703" value="" style="rounded=0;whiteSpace=wrap;html=1;" parent="1" vertex="1">
          <mxGeometry x="481" y="367" width="63" height="41" as="geometry" />
        </mxCell>
        <mxCell id="n92__l8IA7T7h4lLXl1T-704" value="" style="ellipse;whiteSpace=wrap;html=1;aspect=fixed;" parent="1" vertex="1">
          <mxGeometry x="124.5" y="377.5" width="20" height="20" as="geometry" />
        </mxCell>
        <mxCell id="n92__l8IA7T7h4lLXl1T-705" value="" style="ellipse;whiteSpace=wrap;html=1;aspect=fixed;" parent="1" vertex="1">
          <mxGeometry x="187.5" y="377.5" width="20" height="20" as="geometry" />
        </mxCell>
        <mxCell id="n92__l8IA7T7h4lLXl1T-706" value="" style="ellipse;whiteSpace=wrap;html=1;aspect=fixed;" parent="1" vertex="1">
          <mxGeometry x="250.5" y="377.5" width="20" height="20" as="geometry" />
        </mxCell>
        <mxCell id="n92__l8IA7T7h4lLXl1T-707" value="" style="ellipse;whiteSpace=wrap;html=1;aspect=fixed;" parent="1" vertex="1">
          <mxGeometry x="313.5" y="377.5" width="20" height="20" as="geometry" />
        </mxCell>
        <mxCell id="n92__l8IA7T7h4lLXl1T-708" value="" style="ellipse;whiteSpace=wrap;html=1;aspect=fixed;" parent="1" vertex="1">
          <mxGeometry x="376.5" y="377.5" width="20" height="20" as="geometry" />
        </mxCell>
        <mxCell id="n92__l8IA7T7h4lLXl1T-709" value="" style="ellipse;whiteSpace=wrap;html=1;aspect=fixed;" parent="1" vertex="1">
          <mxGeometry x="502.5" y="377.5" width="20" height="20" as="geometry" />
        </mxCell>
        <mxCell id="n92__l8IA7T7h4lLXl1T-710" value="" style="ellipse;whiteSpace=wrap;html=1;aspect=fixed;" parent="1" vertex="1">
          <mxGeometry x="565.5" y="377.5" width="20" height="20" as="geometry" />
        </mxCell>
        <mxCell id="n92__l8IA7T7h4lLXl1T-711" value="" style="ellipse;whiteSpace=wrap;html=1;aspect=fixed;" parent="1" vertex="1">
          <mxGeometry x="628.5" y="377.5" width="20" height="20" as="geometry" />
        </mxCell>
        <mxCell id="n92__l8IA7T7h4lLXl1T-712" value="" style="ellipse;whiteSpace=wrap;html=1;aspect=fixed;" parent="1" vertex="1">
          <mxGeometry x="691.5" y="377.5" width="20" height="20" as="geometry" />
        </mxCell>
        <mxCell id="n92__l8IA7T7h4lLXl1T-713" value="" style="ellipse;whiteSpace=wrap;html=1;aspect=fixed;" parent="1" vertex="1">
          <mxGeometry x="754.5" y="377.5" width="20" height="20" as="geometry" />
        </mxCell>
        <mxCell id="n92__l8IA7T7h4lLXl1T-714" value="" style="rounded=0;whiteSpace=wrap;html=1;" parent="1" vertex="1">
          <mxGeometry x="166" y="408" width="63" height="41" as="geometry" />
        </mxCell>
        <mxCell id="n92__l8IA7T7h4lLXl1T-715" value="" style="rounded=0;whiteSpace=wrap;html=1;" parent="1" vertex="1">
          <mxGeometry x="229" y="408" width="63" height="41" as="geometry" />
        </mxCell>
        <mxCell id="n92__l8IA7T7h4lLXl1T-716" value="" style="rounded=0;whiteSpace=wrap;html=1;" parent="1" vertex="1">
          <mxGeometry x="292" y="408" width="63" height="41" as="geometry" />
        </mxCell>
        <mxCell id="n92__l8IA7T7h4lLXl1T-717" value="" style="rounded=0;whiteSpace=wrap;html=1;" parent="1" vertex="1">
          <mxGeometry x="355" y="408" width="63" height="41" as="geometry" />
        </mxCell>
        <mxCell id="n92__l8IA7T7h4lLXl1T-718" value="8" style="rounded=0;whiteSpace=wrap;html=1;" parent="1" vertex="1">
          <mxGeometry x="40" y="408" width="63" height="41" as="geometry" />
        </mxCell>
        <mxCell id="n92__l8IA7T7h4lLXl1T-719" value="" style="rounded=0;whiteSpace=wrap;html=1;" parent="1" vertex="1">
          <mxGeometry x="103" y="408" width="63" height="41" as="geometry" />
        </mxCell>
        <mxCell id="n92__l8IA7T7h4lLXl1T-720" value="" style="rounded=0;whiteSpace=wrap;html=1;" parent="1" vertex="1">
          <mxGeometry x="544" y="408" width="63" height="41" as="geometry" />
        </mxCell>
        <mxCell id="n92__l8IA7T7h4lLXl1T-721" value="" style="rounded=0;whiteSpace=wrap;html=1;" parent="1" vertex="1">
          <mxGeometry x="607" y="408" width="63" height="41" as="geometry" />
        </mxCell>
        <mxCell id="n92__l8IA7T7h4lLXl1T-722" value="" style="rounded=0;whiteSpace=wrap;html=1;" parent="1" vertex="1">
          <mxGeometry x="670" y="408" width="63" height="41" as="geometry" />
        </mxCell>
        <mxCell id="n92__l8IA7T7h4lLXl1T-723" value="" style="rounded=0;whiteSpace=wrap;html=1;" parent="1" vertex="1">
          <mxGeometry x="733" y="408" width="63" height="41" as="geometry" />
        </mxCell>
        <mxCell id="n92__l8IA7T7h4lLXl1T-724" value="33" style="rounded=0;whiteSpace=wrap;html=1;" parent="1" vertex="1">
          <mxGeometry x="418" y="408" width="63" height="41" as="geometry" />
        </mxCell>
        <mxCell id="n92__l8IA7T7h4lLXl1T-725" value="" style="rounded=0;whiteSpace=wrap;html=1;" parent="1" vertex="1">
          <mxGeometry x="481" y="408" width="63" height="41" as="geometry" />
        </mxCell>
        <mxCell id="n92__l8IA7T7h4lLXl1T-726" value="" style="ellipse;whiteSpace=wrap;html=1;aspect=fixed;" parent="1" vertex="1">
          <mxGeometry x="124.5" y="418.5" width="20" height="20" as="geometry" />
        </mxCell>
        <mxCell id="n92__l8IA7T7h4lLXl1T-727" value="" style="ellipse;whiteSpace=wrap;html=1;aspect=fixed;" parent="1" vertex="1">
          <mxGeometry x="187.5" y="418.5" width="20" height="20" as="geometry" />
        </mxCell>
        <mxCell id="n92__l8IA7T7h4lLXl1T-728" value="" style="ellipse;whiteSpace=wrap;html=1;aspect=fixed;" parent="1" vertex="1">
          <mxGeometry x="250.5" y="418.5" width="20" height="20" as="geometry" />
        </mxCell>
        <mxCell id="n92__l8IA7T7h4lLXl1T-729" value="" style="ellipse;whiteSpace=wrap;html=1;aspect=fixed;" parent="1" vertex="1">
          <mxGeometry x="313.5" y="418.5" width="20" height="20" as="geometry" />
        </mxCell>
        <mxCell id="n92__l8IA7T7h4lLXl1T-730" value="" style="ellipse;whiteSpace=wrap;html=1;aspect=fixed;" parent="1" vertex="1">
          <mxGeometry x="376.5" y="418.5" width="20" height="20" as="geometry" />
        </mxCell>
        <mxCell id="n92__l8IA7T7h4lLXl1T-731" value="" style="ellipse;whiteSpace=wrap;html=1;aspect=fixed;" parent="1" vertex="1">
          <mxGeometry x="502.5" y="418.5" width="20" height="20" as="geometry" />
        </mxCell>
        <mxCell id="n92__l8IA7T7h4lLXl1T-732" value="" style="ellipse;whiteSpace=wrap;html=1;aspect=fixed;" parent="1" vertex="1">
          <mxGeometry x="565.5" y="418.5" width="20" height="20" as="geometry" />
        </mxCell>
        <mxCell id="n92__l8IA7T7h4lLXl1T-733" value="" style="ellipse;whiteSpace=wrap;html=1;aspect=fixed;" parent="1" vertex="1">
          <mxGeometry x="628.5" y="418.5" width="20" height="20" as="geometry" />
        </mxCell>
        <mxCell id="n92__l8IA7T7h4lLXl1T-734" value="" style="ellipse;whiteSpace=wrap;html=1;aspect=fixed;" parent="1" vertex="1">
          <mxGeometry x="691.5" y="418.5" width="20" height="20" as="geometry" />
        </mxCell>
        <mxCell id="n92__l8IA7T7h4lLXl1T-735" value="" style="ellipse;whiteSpace=wrap;html=1;aspect=fixed;" parent="1" vertex="1">
          <mxGeometry x="754.5" y="418.5" width="20" height="20" as="geometry" />
        </mxCell>
        <mxCell id="n92__l8IA7T7h4lLXl1T-736" value="" style="rounded=0;whiteSpace=wrap;html=1;" parent="1" vertex="1">
          <mxGeometry x="166" y="449" width="63" height="41" as="geometry" />
        </mxCell>
        <mxCell id="n92__l8IA7T7h4lLXl1T-737" value="" style="rounded=0;whiteSpace=wrap;html=1;" parent="1" vertex="1">
          <mxGeometry x="229" y="449" width="63" height="41" as="geometry" />
        </mxCell>
        <mxCell id="n92__l8IA7T7h4lLXl1T-738" value="" style="rounded=0;whiteSpace=wrap;html=1;" parent="1" vertex="1">
          <mxGeometry x="292" y="449" width="63" height="41" as="geometry" />
        </mxCell>
        <mxCell id="n92__l8IA7T7h4lLXl1T-739" value="" style="rounded=0;whiteSpace=wrap;html=1;" parent="1" vertex="1">
          <mxGeometry x="355" y="449" width="63" height="41" as="geometry" />
        </mxCell>
        <mxCell id="n92__l8IA7T7h4lLXl1T-740" value="9" style="rounded=0;whiteSpace=wrap;html=1;" parent="1" vertex="1">
          <mxGeometry x="40" y="449" width="63" height="41" as="geometry" />
        </mxCell>
        <mxCell id="n92__l8IA7T7h4lLXl1T-741" value="" style="rounded=0;whiteSpace=wrap;html=1;" parent="1" vertex="1">
          <mxGeometry x="103" y="449" width="63" height="41" as="geometry" />
        </mxCell>
        <mxCell id="n92__l8IA7T7h4lLXl1T-742" value="" style="rounded=0;whiteSpace=wrap;html=1;" parent="1" vertex="1">
          <mxGeometry x="544" y="449" width="63" height="41" as="geometry" />
        </mxCell>
        <mxCell id="n92__l8IA7T7h4lLXl1T-743" value="" style="rounded=0;whiteSpace=wrap;html=1;" parent="1" vertex="1">
          <mxGeometry x="607" y="449" width="63" height="41" as="geometry" />
        </mxCell>
        <mxCell id="n92__l8IA7T7h4lLXl1T-744" value="" style="rounded=0;whiteSpace=wrap;html=1;" parent="1" vertex="1">
          <mxGeometry x="670" y="449" width="63" height="41" as="geometry" />
        </mxCell>
        <mxCell id="n92__l8IA7T7h4lLXl1T-745" value="" style="rounded=0;whiteSpace=wrap;html=1;" parent="1" vertex="1">
          <mxGeometry x="733" y="449" width="63" height="41" as="geometry" />
        </mxCell>
        <mxCell id="n92__l8IA7T7h4lLXl1T-746" value="34" style="rounded=0;whiteSpace=wrap;html=1;" parent="1" vertex="1">
          <mxGeometry x="418" y="449" width="63" height="41" as="geometry" />
        </mxCell>
        <mxCell id="n92__l8IA7T7h4lLXl1T-747" value="" style="rounded=0;whiteSpace=wrap;html=1;" parent="1" vertex="1">
          <mxGeometry x="481" y="449" width="63" height="41" as="geometry" />
        </mxCell>
        <mxCell id="n92__l8IA7T7h4lLXl1T-748" value="" style="ellipse;whiteSpace=wrap;html=1;aspect=fixed;" parent="1" vertex="1">
          <mxGeometry x="124.5" y="459.5" width="20" height="20" as="geometry" />
        </mxCell>
        <mxCell id="n92__l8IA7T7h4lLXl1T-749" value="" style="ellipse;whiteSpace=wrap;html=1;aspect=fixed;" parent="1" vertex="1">
          <mxGeometry x="187.5" y="459.5" width="20" height="20" as="geometry" />
        </mxCell>
        <mxCell id="n92__l8IA7T7h4lLXl1T-750" value="" style="ellipse;whiteSpace=wrap;html=1;aspect=fixed;" parent="1" vertex="1">
          <mxGeometry x="250.5" y="459.5" width="20" height="20" as="geometry" />
        </mxCell>
        <mxCell id="n92__l8IA7T7h4lLXl1T-751" value="" style="ellipse;whiteSpace=wrap;html=1;aspect=fixed;" parent="1" vertex="1">
          <mxGeometry x="313.5" y="459.5" width="20" height="20" as="geometry" />
        </mxCell>
        <mxCell id="n92__l8IA7T7h4lLXl1T-752" value="" style="ellipse;whiteSpace=wrap;html=1;aspect=fixed;" parent="1" vertex="1">
          <mxGeometry x="376.5" y="459.5" width="20" height="20" as="geometry" />
        </mxCell>
        <mxCell id="n92__l8IA7T7h4lLXl1T-753" value="" style="ellipse;whiteSpace=wrap;html=1;aspect=fixed;" parent="1" vertex="1">
          <mxGeometry x="502.5" y="459.5" width="20" height="20" as="geometry" />
        </mxCell>
        <mxCell id="n92__l8IA7T7h4lLXl1T-754" value="" style="ellipse;whiteSpace=wrap;html=1;aspect=fixed;" parent="1" vertex="1">
          <mxGeometry x="565.5" y="459.5" width="20" height="20" as="geometry" />
        </mxCell>
        <mxCell id="n92__l8IA7T7h4lLXl1T-755" value="" style="ellipse;whiteSpace=wrap;html=1;aspect=fixed;" parent="1" vertex="1">
          <mxGeometry x="628.5" y="459.5" width="20" height="20" as="geometry" />
        </mxCell>
        <mxCell id="n92__l8IA7T7h4lLXl1T-756" value="" style="ellipse;whiteSpace=wrap;html=1;aspect=fixed;" parent="1" vertex="1">
          <mxGeometry x="691.5" y="459.5" width="20" height="20" as="geometry" />
        </mxCell>
        <mxCell id="n92__l8IA7T7h4lLXl1T-757" value="" style="ellipse;whiteSpace=wrap;html=1;aspect=fixed;" parent="1" vertex="1">
          <mxGeometry x="754.5" y="459.5" width="20" height="20" as="geometry" />
        </mxCell>
        <mxCell id="n92__l8IA7T7h4lLXl1T-758" value="" style="rounded=0;whiteSpace=wrap;html=1;" parent="1" vertex="1">
          <mxGeometry x="166" y="490" width="63" height="41" as="geometry" />
        </mxCell>
        <mxCell id="n92__l8IA7T7h4lLXl1T-759" value="" style="rounded=0;whiteSpace=wrap;html=1;" parent="1" vertex="1">
          <mxGeometry x="229" y="490" width="63" height="41" as="geometry" />
        </mxCell>
        <mxCell id="n92__l8IA7T7h4lLXl1T-760" value="" style="rounded=0;whiteSpace=wrap;html=1;" parent="1" vertex="1">
          <mxGeometry x="292" y="490" width="63" height="41" as="geometry" />
        </mxCell>
        <mxCell id="n92__l8IA7T7h4lLXl1T-761" value="" style="rounded=0;whiteSpace=wrap;html=1;" parent="1" vertex="1">
          <mxGeometry x="355" y="490" width="63" height="41" as="geometry" />
        </mxCell>
        <mxCell id="n92__l8IA7T7h4lLXl1T-762" value="10" style="rounded=0;whiteSpace=wrap;html=1;" parent="1" vertex="1">
          <mxGeometry x="40" y="490" width="63" height="41" as="geometry" />
        </mxCell>
        <mxCell id="n92__l8IA7T7h4lLXl1T-763" value="" style="rounded=0;whiteSpace=wrap;html=1;" parent="1" vertex="1">
          <mxGeometry x="103" y="490" width="63" height="41" as="geometry" />
        </mxCell>
        <mxCell id="n92__l8IA7T7h4lLXl1T-764" value="" style="rounded=0;whiteSpace=wrap;html=1;" parent="1" vertex="1">
          <mxGeometry x="544" y="490" width="63" height="41" as="geometry" />
        </mxCell>
        <mxCell id="n92__l8IA7T7h4lLXl1T-765" value="" style="rounded=0;whiteSpace=wrap;html=1;" parent="1" vertex="1">
          <mxGeometry x="607" y="490" width="63" height="41" as="geometry" />
        </mxCell>
        <mxCell id="n92__l8IA7T7h4lLXl1T-766" value="" style="rounded=0;whiteSpace=wrap;html=1;" parent="1" vertex="1">
          <mxGeometry x="670" y="490" width="63" height="41" as="geometry" />
        </mxCell>
        <mxCell id="n92__l8IA7T7h4lLXl1T-767" value="" style="rounded=0;whiteSpace=wrap;html=1;" parent="1" vertex="1">
          <mxGeometry x="733" y="490" width="63" height="41" as="geometry" />
        </mxCell>
        <mxCell id="n92__l8IA7T7h4lLXl1T-768" value="35" style="rounded=0;whiteSpace=wrap;html=1;" parent="1" vertex="1">
          <mxGeometry x="418" y="490" width="63" height="41" as="geometry" />
        </mxCell>
        <mxCell id="n92__l8IA7T7h4lLXl1T-769" value="" style="rounded=0;whiteSpace=wrap;html=1;" parent="1" vertex="1">
          <mxGeometry x="481" y="490" width="63" height="41" as="geometry" />
        </mxCell>
        <mxCell id="n92__l8IA7T7h4lLXl1T-770" value="" style="ellipse;whiteSpace=wrap;html=1;aspect=fixed;" parent="1" vertex="1">
          <mxGeometry x="124.5" y="500.5" width="20" height="20" as="geometry" />
        </mxCell>
        <mxCell id="n92__l8IA7T7h4lLXl1T-771" value="" style="ellipse;whiteSpace=wrap;html=1;aspect=fixed;" parent="1" vertex="1">
          <mxGeometry x="187.5" y="500.5" width="20" height="20" as="geometry" />
        </mxCell>
        <mxCell id="n92__l8IA7T7h4lLXl1T-772" value="" style="ellipse;whiteSpace=wrap;html=1;aspect=fixed;" parent="1" vertex="1">
          <mxGeometry x="250.5" y="500.5" width="20" height="20" as="geometry" />
        </mxCell>
        <mxCell id="n92__l8IA7T7h4lLXl1T-773" value="" style="ellipse;whiteSpace=wrap;html=1;aspect=fixed;" parent="1" vertex="1">
          <mxGeometry x="313.5" y="500.5" width="20" height="20" as="geometry" />
        </mxCell>
        <mxCell id="n92__l8IA7T7h4lLXl1T-774" value="" style="ellipse;whiteSpace=wrap;html=1;aspect=fixed;" parent="1" vertex="1">
          <mxGeometry x="376.5" y="500.5" width="20" height="20" as="geometry" />
        </mxCell>
        <mxCell id="n92__l8IA7T7h4lLXl1T-775" value="" style="ellipse;whiteSpace=wrap;html=1;aspect=fixed;" parent="1" vertex="1">
          <mxGeometry x="502.5" y="500.5" width="20" height="20" as="geometry" />
        </mxCell>
        <mxCell id="n92__l8IA7T7h4lLXl1T-776" value="" style="ellipse;whiteSpace=wrap;html=1;aspect=fixed;" parent="1" vertex="1">
          <mxGeometry x="565.5" y="500.5" width="20" height="20" as="geometry" />
        </mxCell>
        <mxCell id="n92__l8IA7T7h4lLXl1T-777" value="" style="ellipse;whiteSpace=wrap;html=1;aspect=fixed;" parent="1" vertex="1">
          <mxGeometry x="628.5" y="500.5" width="20" height="20" as="geometry" />
        </mxCell>
        <mxCell id="n92__l8IA7T7h4lLXl1T-778" value="" style="ellipse;whiteSpace=wrap;html=1;aspect=fixed;" parent="1" vertex="1">
          <mxGeometry x="691.5" y="500.5" width="20" height="20" as="geometry" />
        </mxCell>
        <mxCell id="n92__l8IA7T7h4lLXl1T-779" value="" style="ellipse;whiteSpace=wrap;html=1;aspect=fixed;" parent="1" vertex="1">
          <mxGeometry x="754.5" y="500.5" width="20" height="20" as="geometry" />
        </mxCell>
        <mxCell id="n92__l8IA7T7h4lLXl1T-780" value="" style="rounded=0;whiteSpace=wrap;html=1;" parent="1" vertex="1">
          <mxGeometry x="166" y="531" width="63" height="41" as="geometry" />
        </mxCell>
        <mxCell id="n92__l8IA7T7h4lLXl1T-781" value="" style="rounded=0;whiteSpace=wrap;html=1;" parent="1" vertex="1">
          <mxGeometry x="229" y="531" width="63" height="41" as="geometry" />
        </mxCell>
        <mxCell id="n92__l8IA7T7h4lLXl1T-782" value="" style="rounded=0;whiteSpace=wrap;html=1;" parent="1" vertex="1">
          <mxGeometry x="292" y="531" width="63" height="41" as="geometry" />
        </mxCell>
        <mxCell id="n92__l8IA7T7h4lLXl1T-783" value="" style="rounded=0;whiteSpace=wrap;html=1;" parent="1" vertex="1">
          <mxGeometry x="355" y="531" width="63" height="41" as="geometry" />
        </mxCell>
        <mxCell id="n92__l8IA7T7h4lLXl1T-784" value="11" style="rounded=0;whiteSpace=wrap;html=1;" parent="1" vertex="1">
          <mxGeometry x="40" y="531" width="63" height="41" as="geometry" />
        </mxCell>
        <mxCell id="n92__l8IA7T7h4lLXl1T-785" value="" style="rounded=0;whiteSpace=wrap;html=1;" parent="1" vertex="1">
          <mxGeometry x="103" y="531" width="63" height="41" as="geometry" />
        </mxCell>
        <mxCell id="n92__l8IA7T7h4lLXl1T-786" value="" style="rounded=0;whiteSpace=wrap;html=1;" parent="1" vertex="1">
          <mxGeometry x="544" y="531" width="63" height="41" as="geometry" />
        </mxCell>
        <mxCell id="n92__l8IA7T7h4lLXl1T-787" value="" style="rounded=0;whiteSpace=wrap;html=1;" parent="1" vertex="1">
          <mxGeometry x="607" y="531" width="63" height="41" as="geometry" />
        </mxCell>
        <mxCell id="n92__l8IA7T7h4lLXl1T-788" value="" style="rounded=0;whiteSpace=wrap;html=1;" parent="1" vertex="1">
          <mxGeometry x="670" y="531" width="63" height="41" as="geometry" />
        </mxCell>
        <mxCell id="n92__l8IA7T7h4lLXl1T-789" value="" style="rounded=0;whiteSpace=wrap;html=1;" parent="1" vertex="1">
          <mxGeometry x="733" y="531" width="63" height="41" as="geometry" />
        </mxCell>
        <mxCell id="n92__l8IA7T7h4lLXl1T-790" value="36" style="rounded=0;whiteSpace=wrap;html=1;" parent="1" vertex="1">
          <mxGeometry x="418" y="531" width="63" height="41" as="geometry" />
        </mxCell>
        <mxCell id="n92__l8IA7T7h4lLXl1T-791" value="" style="rounded=0;whiteSpace=wrap;html=1;" parent="1" vertex="1">
          <mxGeometry x="481" y="531" width="63" height="41" as="geometry" />
        </mxCell>
        <mxCell id="n92__l8IA7T7h4lLXl1T-792" value="" style="ellipse;whiteSpace=wrap;html=1;aspect=fixed;" parent="1" vertex="1">
          <mxGeometry x="124.5" y="541.5" width="20" height="20" as="geometry" />
        </mxCell>
        <mxCell id="n92__l8IA7T7h4lLXl1T-793" value="" style="ellipse;whiteSpace=wrap;html=1;aspect=fixed;" parent="1" vertex="1">
          <mxGeometry x="187.5" y="541.5" width="20" height="20" as="geometry" />
        </mxCell>
        <mxCell id="n92__l8IA7T7h4lLXl1T-794" value="" style="ellipse;whiteSpace=wrap;html=1;aspect=fixed;" parent="1" vertex="1">
          <mxGeometry x="250.5" y="541.5" width="20" height="20" as="geometry" />
        </mxCell>
        <mxCell id="n92__l8IA7T7h4lLXl1T-795" value="" style="ellipse;whiteSpace=wrap;html=1;aspect=fixed;" parent="1" vertex="1">
          <mxGeometry x="313.5" y="541.5" width="20" height="20" as="geometry" />
        </mxCell>
        <mxCell id="n92__l8IA7T7h4lLXl1T-796" value="" style="ellipse;whiteSpace=wrap;html=1;aspect=fixed;" parent="1" vertex="1">
          <mxGeometry x="376.5" y="541.5" width="20" height="20" as="geometry" />
        </mxCell>
        <mxCell id="n92__l8IA7T7h4lLXl1T-797" value="" style="ellipse;whiteSpace=wrap;html=1;aspect=fixed;" parent="1" vertex="1">
          <mxGeometry x="502.5" y="541.5" width="20" height="20" as="geometry" />
        </mxCell>
        <mxCell id="n92__l8IA7T7h4lLXl1T-798" value="" style="ellipse;whiteSpace=wrap;html=1;aspect=fixed;" parent="1" vertex="1">
          <mxGeometry x="565.5" y="541.5" width="20" height="20" as="geometry" />
        </mxCell>
        <mxCell id="n92__l8IA7T7h4lLXl1T-799" value="" style="ellipse;whiteSpace=wrap;html=1;aspect=fixed;" parent="1" vertex="1">
          <mxGeometry x="628.5" y="541.5" width="20" height="20" as="geometry" />
        </mxCell>
        <mxCell id="n92__l8IA7T7h4lLXl1T-800" value="" style="ellipse;whiteSpace=wrap;html=1;aspect=fixed;" parent="1" vertex="1">
          <mxGeometry x="691.5" y="541.5" width="20" height="20" as="geometry" />
        </mxCell>
        <mxCell id="n92__l8IA7T7h4lLXl1T-801" value="" style="ellipse;whiteSpace=wrap;html=1;aspect=fixed;" parent="1" vertex="1">
          <mxGeometry x="754.5" y="541.5" width="20" height="20" as="geometry" />
        </mxCell>
        <mxCell id="n92__l8IA7T7h4lLXl1T-802" value="" style="rounded=0;whiteSpace=wrap;html=1;" parent="1" vertex="1">
          <mxGeometry x="166" y="572" width="63" height="41" as="geometry" />
        </mxCell>
        <mxCell id="n92__l8IA7T7h4lLXl1T-803" value="" style="rounded=0;whiteSpace=wrap;html=1;" parent="1" vertex="1">
          <mxGeometry x="229" y="572" width="63" height="41" as="geometry" />
        </mxCell>
        <mxCell id="n92__l8IA7T7h4lLXl1T-804" value="" style="rounded=0;whiteSpace=wrap;html=1;" parent="1" vertex="1">
          <mxGeometry x="292" y="572" width="63" height="41" as="geometry" />
        </mxCell>
        <mxCell id="n92__l8IA7T7h4lLXl1T-805" value="" style="rounded=0;whiteSpace=wrap;html=1;" parent="1" vertex="1">
          <mxGeometry x="355" y="572" width="63" height="41" as="geometry" />
        </mxCell>
        <mxCell id="n92__l8IA7T7h4lLXl1T-806" value="12" style="rounded=0;whiteSpace=wrap;html=1;" parent="1" vertex="1">
          <mxGeometry x="40" y="572" width="63" height="41" as="geometry" />
        </mxCell>
        <mxCell id="n92__l8IA7T7h4lLXl1T-807" value="" style="rounded=0;whiteSpace=wrap;html=1;" parent="1" vertex="1">
          <mxGeometry x="103" y="572" width="63" height="41" as="geometry" />
        </mxCell>
        <mxCell id="n92__l8IA7T7h4lLXl1T-808" value="" style="rounded=0;whiteSpace=wrap;html=1;" parent="1" vertex="1">
          <mxGeometry x="544" y="572" width="63" height="41" as="geometry" />
        </mxCell>
        <mxCell id="n92__l8IA7T7h4lLXl1T-809" value="" style="rounded=0;whiteSpace=wrap;html=1;" parent="1" vertex="1">
          <mxGeometry x="607" y="572" width="63" height="41" as="geometry" />
        </mxCell>
        <mxCell id="n92__l8IA7T7h4lLXl1T-810" value="" style="rounded=0;whiteSpace=wrap;html=1;" parent="1" vertex="1">
          <mxGeometry x="670" y="572" width="63" height="41" as="geometry" />
        </mxCell>
        <mxCell id="n92__l8IA7T7h4lLXl1T-811" value="" style="rounded=0;whiteSpace=wrap;html=1;" parent="1" vertex="1">
          <mxGeometry x="733" y="572" width="63" height="41" as="geometry" />
        </mxCell>
        <mxCell id="n92__l8IA7T7h4lLXl1T-812" value="37" style="rounded=0;whiteSpace=wrap;html=1;" parent="1" vertex="1">
          <mxGeometry x="418" y="572" width="63" height="41" as="geometry" />
        </mxCell>
        <mxCell id="n92__l8IA7T7h4lLXl1T-813" value="" style="rounded=0;whiteSpace=wrap;html=1;" parent="1" vertex="1">
          <mxGeometry x="481" y="572" width="63" height="41" as="geometry" />
        </mxCell>
        <mxCell id="n92__l8IA7T7h4lLXl1T-814" value="" style="ellipse;whiteSpace=wrap;html=1;aspect=fixed;" parent="1" vertex="1">
          <mxGeometry x="124.5" y="582.5" width="20" height="20" as="geometry" />
        </mxCell>
        <mxCell id="n92__l8IA7T7h4lLXl1T-815" value="" style="ellipse;whiteSpace=wrap;html=1;aspect=fixed;" parent="1" vertex="1">
          <mxGeometry x="187.5" y="582.5" width="20" height="20" as="geometry" />
        </mxCell>
        <mxCell id="n92__l8IA7T7h4lLXl1T-816" value="" style="ellipse;whiteSpace=wrap;html=1;aspect=fixed;fillColor=#000000;" parent="1" vertex="1">
          <mxGeometry x="250.5" y="582.5" width="20" height="20" as="geometry" />
        </mxCell>
        <mxCell id="n92__l8IA7T7h4lLXl1T-817" value="" style="ellipse;whiteSpace=wrap;html=1;aspect=fixed;" parent="1" vertex="1">
          <mxGeometry x="313.5" y="582.5" width="20" height="20" as="geometry" />
        </mxCell>
        <mxCell id="n92__l8IA7T7h4lLXl1T-818" value="" style="ellipse;whiteSpace=wrap;html=1;aspect=fixed;" parent="1" vertex="1">
          <mxGeometry x="376.5" y="582.5" width="20" height="20" as="geometry" />
        </mxCell>
        <mxCell id="n92__l8IA7T7h4lLXl1T-819" value="" style="ellipse;whiteSpace=wrap;html=1;aspect=fixed;" parent="1" vertex="1">
          <mxGeometry x="502.5" y="582.5" width="20" height="20" as="geometry" />
        </mxCell>
        <mxCell id="n92__l8IA7T7h4lLXl1T-820" value="" style="ellipse;whiteSpace=wrap;html=1;aspect=fixed;" parent="1" vertex="1">
          <mxGeometry x="565.5" y="582.5" width="20" height="20" as="geometry" />
        </mxCell>
        <mxCell id="n92__l8IA7T7h4lLXl1T-821" value="" style="ellipse;whiteSpace=wrap;html=1;aspect=fixed;" parent="1" vertex="1">
          <mxGeometry x="628.5" y="582.5" width="20" height="20" as="geometry" />
        </mxCell>
        <mxCell id="n92__l8IA7T7h4lLXl1T-822" value="" style="ellipse;whiteSpace=wrap;html=1;aspect=fixed;" parent="1" vertex="1">
          <mxGeometry x="691.5" y="582.5" width="20" height="20" as="geometry" />
        </mxCell>
        <mxCell id="n92__l8IA7T7h4lLXl1T-823" value="" style="ellipse;whiteSpace=wrap;html=1;aspect=fixed;" parent="1" vertex="1">
          <mxGeometry x="754.5" y="582.5" width="20" height="20" as="geometry" />
        </mxCell>
        <mxCell id="n92__l8IA7T7h4lLXl1T-824" value="" style="rounded=0;whiteSpace=wrap;html=1;" parent="1" vertex="1">
          <mxGeometry x="166" y="613" width="63" height="41" as="geometry" />
        </mxCell>
        <mxCell id="n92__l8IA7T7h4lLXl1T-825" value="" style="rounded=0;whiteSpace=wrap;html=1;" parent="1" vertex="1">
          <mxGeometry x="229" y="613" width="63" height="41" as="geometry" />
        </mxCell>
        <mxCell id="n92__l8IA7T7h4lLXl1T-826" value="" style="rounded=0;whiteSpace=wrap;html=1;" parent="1" vertex="1">
          <mxGeometry x="292" y="613" width="63" height="41" as="geometry" />
        </mxCell>
        <mxCell id="n92__l8IA7T7h4lLXl1T-827" value="" style="rounded=0;whiteSpace=wrap;html=1;" parent="1" vertex="1">
          <mxGeometry x="355" y="613" width="63" height="41" as="geometry" />
        </mxCell>
        <mxCell id="n92__l8IA7T7h4lLXl1T-828" value="13" style="rounded=0;whiteSpace=wrap;html=1;" parent="1" vertex="1">
          <mxGeometry x="40" y="613" width="63" height="41" as="geometry" />
        </mxCell>
        <mxCell id="n92__l8IA7T7h4lLXl1T-829" value="" style="rounded=0;whiteSpace=wrap;html=1;" parent="1" vertex="1">
          <mxGeometry x="103" y="613" width="63" height="41" as="geometry" />
        </mxCell>
        <mxCell id="n92__l8IA7T7h4lLXl1T-830" value="" style="rounded=0;whiteSpace=wrap;html=1;" parent="1" vertex="1">
          <mxGeometry x="544" y="613" width="63" height="41" as="geometry" />
        </mxCell>
        <mxCell id="n92__l8IA7T7h4lLXl1T-831" value="" style="rounded=0;whiteSpace=wrap;html=1;" parent="1" vertex="1">
          <mxGeometry x="607" y="613" width="63" height="41" as="geometry" />
        </mxCell>
        <mxCell id="n92__l8IA7T7h4lLXl1T-832" value="" style="rounded=0;whiteSpace=wrap;html=1;" parent="1" vertex="1">
          <mxGeometry x="670" y="613" width="63" height="41" as="geometry" />
        </mxCell>
        <mxCell id="n92__l8IA7T7h4lLXl1T-833" value="" style="rounded=0;whiteSpace=wrap;html=1;" parent="1" vertex="1">
          <mxGeometry x="733" y="613" width="63" height="41" as="geometry" />
        </mxCell>
        <mxCell id="n92__l8IA7T7h4lLXl1T-834" value="38" style="rounded=0;whiteSpace=wrap;html=1;" parent="1" vertex="1">
          <mxGeometry x="418" y="613" width="63" height="41" as="geometry" />
        </mxCell>
        <mxCell id="n92__l8IA7T7h4lLXl1T-835" value="" style="rounded=0;whiteSpace=wrap;html=1;" parent="1" vertex="1">
          <mxGeometry x="481" y="613" width="63" height="41" as="geometry" />
        </mxCell>
        <mxCell id="n92__l8IA7T7h4lLXl1T-836" value="" style="ellipse;whiteSpace=wrap;html=1;aspect=fixed;" parent="1" vertex="1">
          <mxGeometry x="124.5" y="623.5" width="20" height="20" as="geometry" />
        </mxCell>
        <mxCell id="n92__l8IA7T7h4lLXl1T-837" value="" style="ellipse;whiteSpace=wrap;html=1;aspect=fixed;" parent="1" vertex="1">
          <mxGeometry x="187.5" y="623.5" width="20" height="20" as="geometry" />
        </mxCell>
        <mxCell id="n92__l8IA7T7h4lLXl1T-838" value="" style="ellipse;whiteSpace=wrap;html=1;aspect=fixed;" parent="1" vertex="1">
          <mxGeometry x="250.5" y="623.5" width="20" height="20" as="geometry" />
        </mxCell>
        <mxCell id="n92__l8IA7T7h4lLXl1T-839" value="" style="ellipse;whiteSpace=wrap;html=1;aspect=fixed;" parent="1" vertex="1">
          <mxGeometry x="313.5" y="623.5" width="20" height="20" as="geometry" />
        </mxCell>
        <mxCell id="n92__l8IA7T7h4lLXl1T-840" value="" style="ellipse;whiteSpace=wrap;html=1;aspect=fixed;" parent="1" vertex="1">
          <mxGeometry x="376.5" y="623.5" width="20" height="20" as="geometry" />
        </mxCell>
        <mxCell id="n92__l8IA7T7h4lLXl1T-841" value="" style="ellipse;whiteSpace=wrap;html=1;aspect=fixed;" parent="1" vertex="1">
          <mxGeometry x="502.5" y="623.5" width="20" height="20" as="geometry" />
        </mxCell>
        <mxCell id="n92__l8IA7T7h4lLXl1T-842" value="" style="ellipse;whiteSpace=wrap;html=1;aspect=fixed;" parent="1" vertex="1">
          <mxGeometry x="565.5" y="623.5" width="20" height="20" as="geometry" />
        </mxCell>
        <mxCell id="n92__l8IA7T7h4lLXl1T-843" value="" style="ellipse;whiteSpace=wrap;html=1;aspect=fixed;" parent="1" vertex="1">
          <mxGeometry x="628.5" y="623.5" width="20" height="20" as="geometry" />
        </mxCell>
        <mxCell id="n92__l8IA7T7h4lLXl1T-844" value="" style="ellipse;whiteSpace=wrap;html=1;aspect=fixed;" parent="1" vertex="1">
          <mxGeometry x="691.5" y="623.5" width="20" height="20" as="geometry" />
        </mxCell>
        <mxCell id="n92__l8IA7T7h4lLXl1T-845" value="" style="ellipse;whiteSpace=wrap;html=1;aspect=fixed;" parent="1" vertex="1">
          <mxGeometry x="754.5" y="623.5" width="20" height="20" as="geometry" />
        </mxCell>
        <mxCell id="n92__l8IA7T7h4lLXl1T-846" value="" style="rounded=0;whiteSpace=wrap;html=1;" parent="1" vertex="1">
          <mxGeometry x="166" y="654" width="63" height="41" as="geometry" />
        </mxCell>
        <mxCell id="n92__l8IA7T7h4lLXl1T-847" value="" style="rounded=0;whiteSpace=wrap;html=1;" parent="1" vertex="1">
          <mxGeometry x="229" y="654" width="63" height="41" as="geometry" />
        </mxCell>
        <mxCell id="n92__l8IA7T7h4lLXl1T-848" value="" style="rounded=0;whiteSpace=wrap;html=1;" parent="1" vertex="1">
          <mxGeometry x="292" y="654" width="63" height="41" as="geometry" />
        </mxCell>
        <mxCell id="n92__l8IA7T7h4lLXl1T-849" value="" style="rounded=0;whiteSpace=wrap;html=1;" parent="1" vertex="1">
          <mxGeometry x="355" y="654" width="63" height="41" as="geometry" />
        </mxCell>
        <mxCell id="n92__l8IA7T7h4lLXl1T-850" value="14" style="rounded=0;whiteSpace=wrap;html=1;" parent="1" vertex="1">
          <mxGeometry x="40" y="654" width="63" height="41" as="geometry" />
        </mxCell>
        <mxCell id="n92__l8IA7T7h4lLXl1T-851" value="" style="rounded=0;whiteSpace=wrap;html=1;" parent="1" vertex="1">
          <mxGeometry x="103" y="654" width="63" height="41" as="geometry" />
        </mxCell>
        <mxCell id="n92__l8IA7T7h4lLXl1T-852" value="" style="rounded=0;whiteSpace=wrap;html=1;" parent="1" vertex="1">
          <mxGeometry x="544" y="654" width="63" height="41" as="geometry" />
        </mxCell>
        <mxCell id="n92__l8IA7T7h4lLXl1T-853" value="" style="rounded=0;whiteSpace=wrap;html=1;" parent="1" vertex="1">
          <mxGeometry x="607" y="654" width="63" height="41" as="geometry" />
        </mxCell>
        <mxCell id="n92__l8IA7T7h4lLXl1T-854" value="" style="rounded=0;whiteSpace=wrap;html=1;" parent="1" vertex="1">
          <mxGeometry x="670" y="654" width="63" height="41" as="geometry" />
        </mxCell>
        <mxCell id="n92__l8IA7T7h4lLXl1T-855" value="" style="rounded=0;whiteSpace=wrap;html=1;" parent="1" vertex="1">
          <mxGeometry x="733" y="654" width="63" height="41" as="geometry" />
        </mxCell>
        <mxCell id="n92__l8IA7T7h4lLXl1T-856" value="39" style="rounded=0;whiteSpace=wrap;html=1;" parent="1" vertex="1">
          <mxGeometry x="418" y="654" width="63" height="41" as="geometry" />
        </mxCell>
        <mxCell id="n92__l8IA7T7h4lLXl1T-857" value="" style="rounded=0;whiteSpace=wrap;html=1;" parent="1" vertex="1">
          <mxGeometry x="481" y="654" width="63" height="41" as="geometry" />
        </mxCell>
        <mxCell id="n92__l8IA7T7h4lLXl1T-858" value="" style="ellipse;whiteSpace=wrap;html=1;aspect=fixed;" parent="1" vertex="1">
          <mxGeometry x="124.5" y="664.5" width="20" height="20" as="geometry" />
        </mxCell>
        <mxCell id="n92__l8IA7T7h4lLXl1T-859" value="" style="ellipse;whiteSpace=wrap;html=1;aspect=fixed;" parent="1" vertex="1">
          <mxGeometry x="187.5" y="664.5" width="20" height="20" as="geometry" />
        </mxCell>
        <mxCell id="n92__l8IA7T7h4lLXl1T-860" value="" style="ellipse;whiteSpace=wrap;html=1;aspect=fixed;" parent="1" vertex="1">
          <mxGeometry x="250.5" y="664.5" width="20" height="20" as="geometry" />
        </mxCell>
        <mxCell id="n92__l8IA7T7h4lLXl1T-861" value="" style="ellipse;whiteSpace=wrap;html=1;aspect=fixed;" parent="1" vertex="1">
          <mxGeometry x="313.5" y="664.5" width="20" height="20" as="geometry" />
        </mxCell>
        <mxCell id="n92__l8IA7T7h4lLXl1T-862" value="" style="ellipse;whiteSpace=wrap;html=1;aspect=fixed;" parent="1" vertex="1">
          <mxGeometry x="376.5" y="664.5" width="20" height="20" as="geometry" />
        </mxCell>
        <mxCell id="n92__l8IA7T7h4lLXl1T-863" value="" style="ellipse;whiteSpace=wrap;html=1;aspect=fixed;" parent="1" vertex="1">
          <mxGeometry x="502.5" y="664.5" width="20" height="20" as="geometry" />
        </mxCell>
        <mxCell id="n92__l8IA7T7h4lLXl1T-864" value="" style="ellipse;whiteSpace=wrap;html=1;aspect=fixed;" parent="1" vertex="1">
          <mxGeometry x="565.5" y="664.5" width="20" height="20" as="geometry" />
        </mxCell>
        <mxCell id="n92__l8IA7T7h4lLXl1T-865" value="" style="ellipse;whiteSpace=wrap;html=1;aspect=fixed;" parent="1" vertex="1">
          <mxGeometry x="628.5" y="664.5" width="20" height="20" as="geometry" />
        </mxCell>
        <mxCell id="n92__l8IA7T7h4lLXl1T-866" value="" style="ellipse;whiteSpace=wrap;html=1;aspect=fixed;" parent="1" vertex="1">
          <mxGeometry x="691.5" y="664.5" width="20" height="20" as="geometry" />
        </mxCell>
        <mxCell id="n92__l8IA7T7h4lLXl1T-867" value="" style="ellipse;whiteSpace=wrap;html=1;aspect=fixed;" parent="1" vertex="1">
          <mxGeometry x="754.5" y="664.5" width="20" height="20" as="geometry" />
        </mxCell>
        <mxCell id="n92__l8IA7T7h4lLXl1T-868" value="" style="rounded=0;whiteSpace=wrap;html=1;" parent="1" vertex="1">
          <mxGeometry x="166" y="695" width="63" height="41" as="geometry" />
        </mxCell>
        <mxCell id="n92__l8IA7T7h4lLXl1T-869" value="" style="rounded=0;whiteSpace=wrap;html=1;" parent="1" vertex="1">
          <mxGeometry x="229" y="695" width="63" height="41" as="geometry" />
        </mxCell>
        <mxCell id="n92__l8IA7T7h4lLXl1T-870" value="" style="rounded=0;whiteSpace=wrap;html=1;" parent="1" vertex="1">
          <mxGeometry x="292" y="695" width="63" height="41" as="geometry" />
        </mxCell>
        <mxCell id="n92__l8IA7T7h4lLXl1T-871" value="" style="rounded=0;whiteSpace=wrap;html=1;" parent="1" vertex="1">
          <mxGeometry x="355" y="695" width="63" height="41" as="geometry" />
        </mxCell>
        <mxCell id="n92__l8IA7T7h4lLXl1T-872" value="15" style="rounded=0;whiteSpace=wrap;html=1;" parent="1" vertex="1">
          <mxGeometry x="40" y="695" width="63" height="41" as="geometry" />
        </mxCell>
        <mxCell id="n92__l8IA7T7h4lLXl1T-873" value="" style="rounded=0;whiteSpace=wrap;html=1;" parent="1" vertex="1">
          <mxGeometry x="103" y="695" width="63" height="41" as="geometry" />
        </mxCell>
        <mxCell id="n92__l8IA7T7h4lLXl1T-874" value="" style="rounded=0;whiteSpace=wrap;html=1;" parent="1" vertex="1">
          <mxGeometry x="544" y="695" width="63" height="41" as="geometry" />
        </mxCell>
        <mxCell id="n92__l8IA7T7h4lLXl1T-875" value="" style="rounded=0;whiteSpace=wrap;html=1;" parent="1" vertex="1">
          <mxGeometry x="607" y="695" width="63" height="41" as="geometry" />
        </mxCell>
        <mxCell id="n92__l8IA7T7h4lLXl1T-876" value="" style="rounded=0;whiteSpace=wrap;html=1;" parent="1" vertex="1">
          <mxGeometry x="670" y="695" width="63" height="41" as="geometry" />
        </mxCell>
        <mxCell id="n92__l8IA7T7h4lLXl1T-877" value="" style="rounded=0;whiteSpace=wrap;html=1;" parent="1" vertex="1">
          <mxGeometry x="733" y="695" width="63" height="41" as="geometry" />
        </mxCell>
        <mxCell id="n92__l8IA7T7h4lLXl1T-878" value="40" style="rounded=0;whiteSpace=wrap;html=1;" parent="1" vertex="1">
          <mxGeometry x="418" y="695" width="63" height="41" as="geometry" />
        </mxCell>
        <mxCell id="n92__l8IA7T7h4lLXl1T-879" value="" style="rounded=0;whiteSpace=wrap;html=1;" parent="1" vertex="1">
          <mxGeometry x="481" y="695" width="63" height="41" as="geometry" />
        </mxCell>
        <mxCell id="n92__l8IA7T7h4lLXl1T-880" value="" style="ellipse;whiteSpace=wrap;html=1;aspect=fixed;" parent="1" vertex="1">
          <mxGeometry x="124.5" y="705.5" width="20" height="20" as="geometry" />
        </mxCell>
        <mxCell id="n92__l8IA7T7h4lLXl1T-881" value="" style="ellipse;whiteSpace=wrap;html=1;aspect=fixed;" parent="1" vertex="1">
          <mxGeometry x="187.5" y="705.5" width="20" height="20" as="geometry" />
        </mxCell>
        <mxCell id="n92__l8IA7T7h4lLXl1T-882" value="" style="ellipse;whiteSpace=wrap;html=1;aspect=fixed;" parent="1" vertex="1">
          <mxGeometry x="250.5" y="705.5" width="20" height="20" as="geometry" />
        </mxCell>
        <mxCell id="n92__l8IA7T7h4lLXl1T-883" value="" style="ellipse;whiteSpace=wrap;html=1;aspect=fixed;" parent="1" vertex="1">
          <mxGeometry x="313.5" y="705.5" width="20" height="20" as="geometry" />
        </mxCell>
        <mxCell id="n92__l8IA7T7h4lLXl1T-884" value="" style="ellipse;whiteSpace=wrap;html=1;aspect=fixed;" parent="1" vertex="1">
          <mxGeometry x="376.5" y="705.5" width="20" height="20" as="geometry" />
        </mxCell>
        <mxCell id="n92__l8IA7T7h4lLXl1T-885" value="" style="ellipse;whiteSpace=wrap;html=1;aspect=fixed;" parent="1" vertex="1">
          <mxGeometry x="502.5" y="705.5" width="20" height="20" as="geometry" />
        </mxCell>
        <mxCell id="n92__l8IA7T7h4lLXl1T-886" value="" style="ellipse;whiteSpace=wrap;html=1;aspect=fixed;" parent="1" vertex="1">
          <mxGeometry x="565.5" y="705.5" width="20" height="20" as="geometry" />
        </mxCell>
        <mxCell id="n92__l8IA7T7h4lLXl1T-887" value="" style="ellipse;whiteSpace=wrap;html=1;aspect=fixed;" parent="1" vertex="1">
          <mxGeometry x="628.5" y="705.5" width="20" height="20" as="geometry" />
        </mxCell>
        <mxCell id="n92__l8IA7T7h4lLXl1T-888" value="" style="ellipse;whiteSpace=wrap;html=1;aspect=fixed;fillColor=#000000;" parent="1" vertex="1">
          <mxGeometry x="691.5" y="705.5" width="20" height="20" as="geometry" />
        </mxCell>
        <mxCell id="n92__l8IA7T7h4lLXl1T-889" value="" style="ellipse;whiteSpace=wrap;html=1;aspect=fixed;" parent="1" vertex="1">
          <mxGeometry x="754.5" y="705.5" width="20" height="20" as="geometry" />
        </mxCell>
        <mxCell id="n92__l8IA7T7h4lLXl1T-890" value="" style="rounded=0;whiteSpace=wrap;html=1;" parent="1" vertex="1">
          <mxGeometry x="166" y="736" width="63" height="41" as="geometry" />
        </mxCell>
        <mxCell id="n92__l8IA7T7h4lLXl1T-891" value="" style="rounded=0;whiteSpace=wrap;html=1;" parent="1" vertex="1">
          <mxGeometry x="229" y="736" width="63" height="41" as="geometry" />
        </mxCell>
        <mxCell id="n92__l8IA7T7h4lLXl1T-892" value="" style="rounded=0;whiteSpace=wrap;html=1;" parent="1" vertex="1">
          <mxGeometry x="292" y="736" width="63" height="41" as="geometry" />
        </mxCell>
        <mxCell id="n92__l8IA7T7h4lLXl1T-893" value="" style="rounded=0;whiteSpace=wrap;html=1;" parent="1" vertex="1">
          <mxGeometry x="355" y="736" width="63" height="41" as="geometry" />
        </mxCell>
        <mxCell id="n92__l8IA7T7h4lLXl1T-894" value="16" style="rounded=0;whiteSpace=wrap;html=1;" parent="1" vertex="1">
          <mxGeometry x="40" y="736" width="63" height="41" as="geometry" />
        </mxCell>
        <mxCell id="n92__l8IA7T7h4lLXl1T-895" value="" style="rounded=0;whiteSpace=wrap;html=1;" parent="1" vertex="1">
          <mxGeometry x="103" y="736" width="63" height="41" as="geometry" />
        </mxCell>
        <mxCell id="n92__l8IA7T7h4lLXl1T-896" value="" style="rounded=0;whiteSpace=wrap;html=1;" parent="1" vertex="1">
          <mxGeometry x="544" y="736" width="63" height="41" as="geometry" />
        </mxCell>
        <mxCell id="n92__l8IA7T7h4lLXl1T-897" value="" style="rounded=0;whiteSpace=wrap;html=1;" parent="1" vertex="1">
          <mxGeometry x="607" y="736" width="63" height="41" as="geometry" />
        </mxCell>
        <mxCell id="n92__l8IA7T7h4lLXl1T-898" value="" style="rounded=0;whiteSpace=wrap;html=1;" parent="1" vertex="1">
          <mxGeometry x="670" y="736" width="63" height="41" as="geometry" />
        </mxCell>
        <mxCell id="n92__l8IA7T7h4lLXl1T-899" value="" style="rounded=0;whiteSpace=wrap;html=1;" parent="1" vertex="1">
          <mxGeometry x="733" y="736" width="63" height="41" as="geometry" />
        </mxCell>
        <mxCell id="n92__l8IA7T7h4lLXl1T-900" value="41" style="rounded=0;whiteSpace=wrap;html=1;" parent="1" vertex="1">
          <mxGeometry x="418" y="736" width="63" height="41" as="geometry" />
        </mxCell>
        <mxCell id="n92__l8IA7T7h4lLXl1T-901" value="" style="rounded=0;whiteSpace=wrap;html=1;" parent="1" vertex="1">
          <mxGeometry x="481" y="736" width="63" height="41" as="geometry" />
        </mxCell>
        <mxCell id="n92__l8IA7T7h4lLXl1T-902" value="" style="ellipse;whiteSpace=wrap;html=1;aspect=fixed;" parent="1" vertex="1">
          <mxGeometry x="124.5" y="746.5" width="20" height="20" as="geometry" />
        </mxCell>
        <mxCell id="n92__l8IA7T7h4lLXl1T-903" value="" style="ellipse;whiteSpace=wrap;html=1;aspect=fixed;" parent="1" vertex="1">
          <mxGeometry x="187.5" y="746.5" width="20" height="20" as="geometry" />
        </mxCell>
        <mxCell id="n92__l8IA7T7h4lLXl1T-904" value="" style="ellipse;whiteSpace=wrap;html=1;aspect=fixed;" parent="1" vertex="1">
          <mxGeometry x="250.5" y="746.5" width="20" height="20" as="geometry" />
        </mxCell>
        <mxCell id="n92__l8IA7T7h4lLXl1T-905" value="" style="ellipse;whiteSpace=wrap;html=1;aspect=fixed;" parent="1" vertex="1">
          <mxGeometry x="313.5" y="746.5" width="20" height="20" as="geometry" />
        </mxCell>
        <mxCell id="n92__l8IA7T7h4lLXl1T-906" value="" style="ellipse;whiteSpace=wrap;html=1;aspect=fixed;" parent="1" vertex="1">
          <mxGeometry x="376.5" y="746.5" width="20" height="20" as="geometry" />
        </mxCell>
        <mxCell id="n92__l8IA7T7h4lLXl1T-907" value="" style="ellipse;whiteSpace=wrap;html=1;aspect=fixed;" parent="1" vertex="1">
          <mxGeometry x="502.5" y="746.5" width="20" height="20" as="geometry" />
        </mxCell>
        <mxCell id="n92__l8IA7T7h4lLXl1T-908" value="" style="ellipse;whiteSpace=wrap;html=1;aspect=fixed;" parent="1" vertex="1">
          <mxGeometry x="565.5" y="746.5" width="20" height="20" as="geometry" />
        </mxCell>
        <mxCell id="n92__l8IA7T7h4lLXl1T-909" value="" style="ellipse;whiteSpace=wrap;html=1;aspect=fixed;" parent="1" vertex="1">
          <mxGeometry x="628.5" y="746.5" width="20" height="20" as="geometry" />
        </mxCell>
        <mxCell id="n92__l8IA7T7h4lLXl1T-910" value="" style="ellipse;whiteSpace=wrap;html=1;aspect=fixed;" parent="1" vertex="1">
          <mxGeometry x="691.5" y="746.5" width="20" height="20" as="geometry" />
        </mxCell>
        <mxCell id="n92__l8IA7T7h4lLXl1T-911" value="" style="ellipse;whiteSpace=wrap;html=1;aspect=fixed;" parent="1" vertex="1">
          <mxGeometry x="754.5" y="746.5" width="20" height="20" as="geometry" />
        </mxCell>
        <mxCell id="n92__l8IA7T7h4lLXl1T-912" value="" style="rounded=0;whiteSpace=wrap;html=1;" parent="1" vertex="1">
          <mxGeometry x="166" y="777" width="63" height="41" as="geometry" />
        </mxCell>
        <mxCell id="n92__l8IA7T7h4lLXl1T-913" value="" style="rounded=0;whiteSpace=wrap;html=1;" parent="1" vertex="1">
          <mxGeometry x="229" y="777" width="63" height="41" as="geometry" />
        </mxCell>
        <mxCell id="n92__l8IA7T7h4lLXl1T-914" value="" style="rounded=0;whiteSpace=wrap;html=1;" parent="1" vertex="1">
          <mxGeometry x="292" y="777" width="63" height="41" as="geometry" />
        </mxCell>
        <mxCell id="n92__l8IA7T7h4lLXl1T-915" value="" style="rounded=0;whiteSpace=wrap;html=1;" parent="1" vertex="1">
          <mxGeometry x="355" y="777" width="63" height="41" as="geometry" />
        </mxCell>
        <mxCell id="n92__l8IA7T7h4lLXl1T-916" value="17" style="rounded=0;whiteSpace=wrap;html=1;" parent="1" vertex="1">
          <mxGeometry x="40" y="777" width="63" height="41" as="geometry" />
        </mxCell>
        <mxCell id="n92__l8IA7T7h4lLXl1T-917" value="" style="rounded=0;whiteSpace=wrap;html=1;" parent="1" vertex="1">
          <mxGeometry x="103" y="777" width="63" height="41" as="geometry" />
        </mxCell>
        <mxCell id="n92__l8IA7T7h4lLXl1T-918" value="" style="rounded=0;whiteSpace=wrap;html=1;" parent="1" vertex="1">
          <mxGeometry x="544" y="777" width="63" height="41" as="geometry" />
        </mxCell>
        <mxCell id="n92__l8IA7T7h4lLXl1T-919" value="" style="rounded=0;whiteSpace=wrap;html=1;" parent="1" vertex="1">
          <mxGeometry x="607" y="777" width="63" height="41" as="geometry" />
        </mxCell>
        <mxCell id="n92__l8IA7T7h4lLXl1T-920" value="" style="rounded=0;whiteSpace=wrap;html=1;" parent="1" vertex="1">
          <mxGeometry x="670" y="777" width="63" height="41" as="geometry" />
        </mxCell>
        <mxCell id="n92__l8IA7T7h4lLXl1T-921" value="" style="rounded=0;whiteSpace=wrap;html=1;" parent="1" vertex="1">
          <mxGeometry x="733" y="777" width="63" height="41" as="geometry" />
        </mxCell>
        <mxCell id="n92__l8IA7T7h4lLXl1T-922" value="42" style="rounded=0;whiteSpace=wrap;html=1;" parent="1" vertex="1">
          <mxGeometry x="418" y="777" width="63" height="41" as="geometry" />
        </mxCell>
        <mxCell id="n92__l8IA7T7h4lLXl1T-923" value="" style="rounded=0;whiteSpace=wrap;html=1;" parent="1" vertex="1">
          <mxGeometry x="481" y="777" width="63" height="41" as="geometry" />
        </mxCell>
        <mxCell id="n92__l8IA7T7h4lLXl1T-924" value="" style="ellipse;whiteSpace=wrap;html=1;aspect=fixed;" parent="1" vertex="1">
          <mxGeometry x="124.5" y="787.5" width="20" height="20" as="geometry" />
        </mxCell>
        <mxCell id="n92__l8IA7T7h4lLXl1T-925" value="" style="ellipse;whiteSpace=wrap;html=1;aspect=fixed;" parent="1" vertex="1">
          <mxGeometry x="187.5" y="787.5" width="20" height="20" as="geometry" />
        </mxCell>
        <mxCell id="n92__l8IA7T7h4lLXl1T-926" value="" style="ellipse;whiteSpace=wrap;html=1;aspect=fixed;" parent="1" vertex="1">
          <mxGeometry x="250.5" y="787.5" width="20" height="20" as="geometry" />
        </mxCell>
        <mxCell id="n92__l8IA7T7h4lLXl1T-927" value="" style="ellipse;whiteSpace=wrap;html=1;aspect=fixed;" parent="1" vertex="1">
          <mxGeometry x="313.5" y="787.5" width="20" height="20" as="geometry" />
        </mxCell>
        <mxCell id="n92__l8IA7T7h4lLXl1T-928" value="" style="ellipse;whiteSpace=wrap;html=1;aspect=fixed;" parent="1" vertex="1">
          <mxGeometry x="376.5" y="787.5" width="20" height="20" as="geometry" />
        </mxCell>
        <mxCell id="n92__l8IA7T7h4lLXl1T-929" value="" style="ellipse;whiteSpace=wrap;html=1;aspect=fixed;" parent="1" vertex="1">
          <mxGeometry x="502.5" y="787.5" width="20" height="20" as="geometry" />
        </mxCell>
        <mxCell id="n92__l8IA7T7h4lLXl1T-930" value="" style="ellipse;whiteSpace=wrap;html=1;aspect=fixed;" parent="1" vertex="1">
          <mxGeometry x="565.5" y="787.5" width="20" height="20" as="geometry" />
        </mxCell>
        <mxCell id="n92__l8IA7T7h4lLXl1T-931" value="" style="ellipse;whiteSpace=wrap;html=1;aspect=fixed;" parent="1" vertex="1">
          <mxGeometry x="628.5" y="787.5" width="20" height="20" as="geometry" />
        </mxCell>
        <mxCell id="n92__l8IA7T7h4lLXl1T-932" value="" style="ellipse;whiteSpace=wrap;html=1;aspect=fixed;" parent="1" vertex="1">
          <mxGeometry x="691.5" y="787.5" width="20" height="20" as="geometry" />
        </mxCell>
        <mxCell id="n92__l8IA7T7h4lLXl1T-933" value="" style="ellipse;whiteSpace=wrap;html=1;aspect=fixed;" parent="1" vertex="1">
          <mxGeometry x="754.5" y="787.5" width="20" height="20" as="geometry" />
        </mxCell>
        <mxCell id="n92__l8IA7T7h4lLXl1T-934" value="" style="rounded=0;whiteSpace=wrap;html=1;" parent="1" vertex="1">
          <mxGeometry x="166" y="818" width="63" height="41" as="geometry" />
        </mxCell>
        <mxCell id="n92__l8IA7T7h4lLXl1T-935" value="" style="rounded=0;whiteSpace=wrap;html=1;" parent="1" vertex="1">
          <mxGeometry x="229" y="818" width="63" height="41" as="geometry" />
        </mxCell>
        <mxCell id="n92__l8IA7T7h4lLXl1T-936" value="" style="rounded=0;whiteSpace=wrap;html=1;" parent="1" vertex="1">
          <mxGeometry x="292" y="818" width="63" height="41" as="geometry" />
        </mxCell>
        <mxCell id="n92__l8IA7T7h4lLXl1T-937" value="" style="rounded=0;whiteSpace=wrap;html=1;" parent="1" vertex="1">
          <mxGeometry x="355" y="818" width="63" height="41" as="geometry" />
        </mxCell>
        <mxCell id="n92__l8IA7T7h4lLXl1T-938" value="18" style="rounded=0;whiteSpace=wrap;html=1;" parent="1" vertex="1">
          <mxGeometry x="40" y="818" width="63" height="41" as="geometry" />
        </mxCell>
        <mxCell id="n92__l8IA7T7h4lLXl1T-939" value="" style="rounded=0;whiteSpace=wrap;html=1;" parent="1" vertex="1">
          <mxGeometry x="103" y="818" width="63" height="41" as="geometry" />
        </mxCell>
        <mxCell id="n92__l8IA7T7h4lLXl1T-940" value="" style="rounded=0;whiteSpace=wrap;html=1;" parent="1" vertex="1">
          <mxGeometry x="544" y="818" width="63" height="41" as="geometry" />
        </mxCell>
        <mxCell id="n92__l8IA7T7h4lLXl1T-941" value="" style="rounded=0;whiteSpace=wrap;html=1;" parent="1" vertex="1">
          <mxGeometry x="607" y="818" width="63" height="41" as="geometry" />
        </mxCell>
        <mxCell id="n92__l8IA7T7h4lLXl1T-942" value="" style="rounded=0;whiteSpace=wrap;html=1;" parent="1" vertex="1">
          <mxGeometry x="670" y="818" width="63" height="41" as="geometry" />
        </mxCell>
        <mxCell id="n92__l8IA7T7h4lLXl1T-943" value="" style="rounded=0;whiteSpace=wrap;html=1;" parent="1" vertex="1">
          <mxGeometry x="733" y="818" width="63" height="41" as="geometry" />
        </mxCell>
        <mxCell id="n92__l8IA7T7h4lLXl1T-944" value="43" style="rounded=0;whiteSpace=wrap;html=1;" parent="1" vertex="1">
          <mxGeometry x="418" y="818" width="63" height="41" as="geometry" />
        </mxCell>
        <mxCell id="n92__l8IA7T7h4lLXl1T-945" value="" style="rounded=0;whiteSpace=wrap;html=1;" parent="1" vertex="1">
          <mxGeometry x="481" y="818" width="63" height="41" as="geometry" />
        </mxCell>
        <mxCell id="n92__l8IA7T7h4lLXl1T-946" value="" style="ellipse;whiteSpace=wrap;html=1;aspect=fixed;" parent="1" vertex="1">
          <mxGeometry x="124.5" y="828.5" width="20" height="20" as="geometry" />
        </mxCell>
        <mxCell id="n92__l8IA7T7h4lLXl1T-947" value="" style="ellipse;whiteSpace=wrap;html=1;aspect=fixed;fillColor=#000000;" parent="1" vertex="1">
          <mxGeometry x="187.5" y="828.5" width="20" height="20" as="geometry" />
        </mxCell>
        <mxCell id="n92__l8IA7T7h4lLXl1T-948" value="" style="ellipse;whiteSpace=wrap;html=1;aspect=fixed;" parent="1" vertex="1">
          <mxGeometry x="250.5" y="828.5" width="20" height="20" as="geometry" />
        </mxCell>
        <mxCell id="n92__l8IA7T7h4lLXl1T-949" value="" style="ellipse;whiteSpace=wrap;html=1;aspect=fixed;" parent="1" vertex="1">
          <mxGeometry x="313.5" y="828.5" width="20" height="20" as="geometry" />
        </mxCell>
        <mxCell id="n92__l8IA7T7h4lLXl1T-950" value="" style="ellipse;whiteSpace=wrap;html=1;aspect=fixed;" parent="1" vertex="1">
          <mxGeometry x="376.5" y="828.5" width="20" height="20" as="geometry" />
        </mxCell>
        <mxCell id="n92__l8IA7T7h4lLXl1T-951" value="" style="ellipse;whiteSpace=wrap;html=1;aspect=fixed;" parent="1" vertex="1">
          <mxGeometry x="502.5" y="828.5" width="20" height="20" as="geometry" />
        </mxCell>
        <mxCell id="n92__l8IA7T7h4lLXl1T-952" value="" style="ellipse;whiteSpace=wrap;html=1;aspect=fixed;" parent="1" vertex="1">
          <mxGeometry x="565.5" y="828.5" width="20" height="20" as="geometry" />
        </mxCell>
        <mxCell id="n92__l8IA7T7h4lLXl1T-953" value="" style="ellipse;whiteSpace=wrap;html=1;aspect=fixed;" parent="1" vertex="1">
          <mxGeometry x="628.5" y="828.5" width="20" height="20" as="geometry" />
        </mxCell>
        <mxCell id="n92__l8IA7T7h4lLXl1T-954" value="" style="ellipse;whiteSpace=wrap;html=1;aspect=fixed;" parent="1" vertex="1">
          <mxGeometry x="691.5" y="828.5" width="20" height="20" as="geometry" />
        </mxCell>
        <mxCell id="n92__l8IA7T7h4lLXl1T-955" value="" style="ellipse;whiteSpace=wrap;html=1;aspect=fixed;" parent="1" vertex="1">
          <mxGeometry x="754.5" y="828.5" width="20" height="20" as="geometry" />
        </mxCell>
        <mxCell id="n92__l8IA7T7h4lLXl1T-956" value="" style="rounded=0;whiteSpace=wrap;html=1;" parent="1" vertex="1">
          <mxGeometry x="166" y="859" width="63" height="41" as="geometry" />
        </mxCell>
        <mxCell id="n92__l8IA7T7h4lLXl1T-957" value="" style="rounded=0;whiteSpace=wrap;html=1;" parent="1" vertex="1">
          <mxGeometry x="229" y="859" width="63" height="41" as="geometry" />
        </mxCell>
        <mxCell id="n92__l8IA7T7h4lLXl1T-958" value="" style="rounded=0;whiteSpace=wrap;html=1;" parent="1" vertex="1">
          <mxGeometry x="292" y="859" width="63" height="41" as="geometry" />
        </mxCell>
        <mxCell id="n92__l8IA7T7h4lLXl1T-959" value="" style="rounded=0;whiteSpace=wrap;html=1;" parent="1" vertex="1">
          <mxGeometry x="355" y="859" width="63" height="41" as="geometry" />
        </mxCell>
        <mxCell id="n92__l8IA7T7h4lLXl1T-960" value="19" style="rounded=0;whiteSpace=wrap;html=1;" parent="1" vertex="1">
          <mxGeometry x="40" y="859" width="63" height="41" as="geometry" />
        </mxCell>
        <mxCell id="n92__l8IA7T7h4lLXl1T-961" value="" style="rounded=0;whiteSpace=wrap;html=1;" parent="1" vertex="1">
          <mxGeometry x="103" y="859" width="63" height="41" as="geometry" />
        </mxCell>
        <mxCell id="n92__l8IA7T7h4lLXl1T-962" value="" style="rounded=0;whiteSpace=wrap;html=1;" parent="1" vertex="1">
          <mxGeometry x="544" y="859" width="63" height="41" as="geometry" />
        </mxCell>
        <mxCell id="n92__l8IA7T7h4lLXl1T-963" value="" style="rounded=0;whiteSpace=wrap;html=1;" parent="1" vertex="1">
          <mxGeometry x="607" y="859" width="63" height="41" as="geometry" />
        </mxCell>
        <mxCell id="n92__l8IA7T7h4lLXl1T-964" value="" style="rounded=0;whiteSpace=wrap;html=1;" parent="1" vertex="1">
          <mxGeometry x="670" y="859" width="63" height="41" as="geometry" />
        </mxCell>
        <mxCell id="n92__l8IA7T7h4lLXl1T-965" value="" style="rounded=0;whiteSpace=wrap;html=1;" parent="1" vertex="1">
          <mxGeometry x="733" y="859" width="63" height="41" as="geometry" />
        </mxCell>
        <mxCell id="n92__l8IA7T7h4lLXl1T-966" value="44" style="rounded=0;whiteSpace=wrap;html=1;" parent="1" vertex="1">
          <mxGeometry x="418" y="859" width="63" height="41" as="geometry" />
        </mxCell>
        <mxCell id="n92__l8IA7T7h4lLXl1T-967" value="" style="rounded=0;whiteSpace=wrap;html=1;" parent="1" vertex="1">
          <mxGeometry x="481" y="859" width="63" height="41" as="geometry" />
        </mxCell>
        <mxCell id="n92__l8IA7T7h4lLXl1T-968" value="" style="ellipse;whiteSpace=wrap;html=1;aspect=fixed;" parent="1" vertex="1">
          <mxGeometry x="124.5" y="869.5" width="20" height="20" as="geometry" />
        </mxCell>
        <mxCell id="n92__l8IA7T7h4lLXl1T-969" value="" style="ellipse;whiteSpace=wrap;html=1;aspect=fixed;" parent="1" vertex="1">
          <mxGeometry x="187.5" y="869.5" width="20" height="20" as="geometry" />
        </mxCell>
        <mxCell id="n92__l8IA7T7h4lLXl1T-970" value="" style="ellipse;whiteSpace=wrap;html=1;aspect=fixed;" parent="1" vertex="1">
          <mxGeometry x="250.5" y="869.5" width="20" height="20" as="geometry" />
        </mxCell>
        <mxCell id="n92__l8IA7T7h4lLXl1T-971" value="" style="ellipse;whiteSpace=wrap;html=1;aspect=fixed;" parent="1" vertex="1">
          <mxGeometry x="313.5" y="869.5" width="20" height="20" as="geometry" />
        </mxCell>
        <mxCell id="n92__l8IA7T7h4lLXl1T-972" value="" style="ellipse;whiteSpace=wrap;html=1;aspect=fixed;" parent="1" vertex="1">
          <mxGeometry x="376.5" y="869.5" width="20" height="20" as="geometry" />
        </mxCell>
        <mxCell id="n92__l8IA7T7h4lLXl1T-973" value="" style="ellipse;whiteSpace=wrap;html=1;aspect=fixed;" parent="1" vertex="1">
          <mxGeometry x="502.5" y="869.5" width="20" height="20" as="geometry" />
        </mxCell>
        <mxCell id="n92__l8IA7T7h4lLXl1T-974" value="" style="ellipse;whiteSpace=wrap;html=1;aspect=fixed;" parent="1" vertex="1">
          <mxGeometry x="565.5" y="869.5" width="20" height="20" as="geometry" />
        </mxCell>
        <mxCell id="n92__l8IA7T7h4lLXl1T-975" value="" style="ellipse;whiteSpace=wrap;html=1;aspect=fixed;" parent="1" vertex="1">
          <mxGeometry x="628.5" y="869.5" width="20" height="20" as="geometry" />
        </mxCell>
        <mxCell id="n92__l8IA7T7h4lLXl1T-976" value="" style="ellipse;whiteSpace=wrap;html=1;aspect=fixed;" parent="1" vertex="1">
          <mxGeometry x="691.5" y="869.5" width="20" height="20" as="geometry" />
        </mxCell>
        <mxCell id="n92__l8IA7T7h4lLXl1T-977" value="" style="ellipse;whiteSpace=wrap;html=1;aspect=fixed;" parent="1" vertex="1">
          <mxGeometry x="754.5" y="869.5" width="20" height="20" as="geometry" />
        </mxCell>
        <mxCell id="n92__l8IA7T7h4lLXl1T-978" value="" style="rounded=0;whiteSpace=wrap;html=1;" parent="1" vertex="1">
          <mxGeometry x="166" y="900" width="63" height="41" as="geometry" />
        </mxCell>
        <mxCell id="n92__l8IA7T7h4lLXl1T-979" value="" style="rounded=0;whiteSpace=wrap;html=1;" parent="1" vertex="1">
          <mxGeometry x="229" y="900" width="63" height="41" as="geometry" />
        </mxCell>
        <mxCell id="n92__l8IA7T7h4lLXl1T-980" value="" style="rounded=0;whiteSpace=wrap;html=1;" parent="1" vertex="1">
          <mxGeometry x="292" y="900" width="63" height="41" as="geometry" />
        </mxCell>
        <mxCell id="n92__l8IA7T7h4lLXl1T-981" value="" style="rounded=0;whiteSpace=wrap;html=1;" parent="1" vertex="1">
          <mxGeometry x="355" y="900" width="63" height="41" as="geometry" />
        </mxCell>
        <mxCell id="n92__l8IA7T7h4lLXl1T-982" value="20" style="rounded=0;whiteSpace=wrap;html=1;" parent="1" vertex="1">
          <mxGeometry x="40" y="900" width="63" height="41" as="geometry" />
        </mxCell>
        <mxCell id="n92__l8IA7T7h4lLXl1T-983" value="" style="rounded=0;whiteSpace=wrap;html=1;" parent="1" vertex="1">
          <mxGeometry x="103" y="900" width="63" height="41" as="geometry" />
        </mxCell>
        <mxCell id="n92__l8IA7T7h4lLXl1T-984" value="" style="rounded=0;whiteSpace=wrap;html=1;" parent="1" vertex="1">
          <mxGeometry x="544" y="900" width="63" height="41" as="geometry" />
        </mxCell>
        <mxCell id="n92__l8IA7T7h4lLXl1T-985" value="" style="rounded=0;whiteSpace=wrap;html=1;" parent="1" vertex="1">
          <mxGeometry x="607" y="900" width="63" height="41" as="geometry" />
        </mxCell>
        <mxCell id="n92__l8IA7T7h4lLXl1T-986" value="" style="rounded=0;whiteSpace=wrap;html=1;" parent="1" vertex="1">
          <mxGeometry x="670" y="900" width="63" height="41" as="geometry" />
        </mxCell>
        <mxCell id="n92__l8IA7T7h4lLXl1T-987" value="" style="rounded=0;whiteSpace=wrap;html=1;" parent="1" vertex="1">
          <mxGeometry x="733" y="900" width="63" height="41" as="geometry" />
        </mxCell>
        <mxCell id="n92__l8IA7T7h4lLXl1T-988" value="45" style="rounded=0;whiteSpace=wrap;html=1;" parent="1" vertex="1">
          <mxGeometry x="418" y="900" width="63" height="41" as="geometry" />
        </mxCell>
        <mxCell id="n92__l8IA7T7h4lLXl1T-989" value="" style="rounded=0;whiteSpace=wrap;html=1;" parent="1" vertex="1">
          <mxGeometry x="481" y="900" width="63" height="41" as="geometry" />
        </mxCell>
        <mxCell id="n92__l8IA7T7h4lLXl1T-990" value="" style="ellipse;whiteSpace=wrap;html=1;aspect=fixed;" parent="1" vertex="1">
          <mxGeometry x="124.5" y="910.5" width="20" height="20" as="geometry" />
        </mxCell>
        <mxCell id="n92__l8IA7T7h4lLXl1T-991" value="" style="ellipse;whiteSpace=wrap;html=1;aspect=fixed;" parent="1" vertex="1">
          <mxGeometry x="187.5" y="910.5" width="20" height="20" as="geometry" />
        </mxCell>
        <mxCell id="n92__l8IA7T7h4lLXl1T-992" value="" style="ellipse;whiteSpace=wrap;html=1;aspect=fixed;" parent="1" vertex="1">
          <mxGeometry x="250.5" y="910.5" width="20" height="20" as="geometry" />
        </mxCell>
        <mxCell id="n92__l8IA7T7h4lLXl1T-993" value="" style="ellipse;whiteSpace=wrap;html=1;aspect=fixed;" parent="1" vertex="1">
          <mxGeometry x="313.5" y="910.5" width="20" height="20" as="geometry" />
        </mxCell>
        <mxCell id="n92__l8IA7T7h4lLXl1T-994" value="" style="ellipse;whiteSpace=wrap;html=1;aspect=fixed;" parent="1" vertex="1">
          <mxGeometry x="376.5" y="910.5" width="20" height="20" as="geometry" />
        </mxCell>
        <mxCell id="n92__l8IA7T7h4lLXl1T-995" value="" style="ellipse;whiteSpace=wrap;html=1;aspect=fixed;" parent="1" vertex="1">
          <mxGeometry x="502.5" y="910.5" width="20" height="20" as="geometry" />
        </mxCell>
        <mxCell id="n92__l8IA7T7h4lLXl1T-996" value="" style="ellipse;whiteSpace=wrap;html=1;aspect=fixed;" parent="1" vertex="1">
          <mxGeometry x="565.5" y="910.5" width="20" height="20" as="geometry" />
        </mxCell>
        <mxCell id="n92__l8IA7T7h4lLXl1T-997" value="" style="ellipse;whiteSpace=wrap;html=1;aspect=fixed;" parent="1" vertex="1">
          <mxGeometry x="628.5" y="910.5" width="20" height="20" as="geometry" />
        </mxCell>
        <mxCell id="n92__l8IA7T7h4lLXl1T-998" value="" style="ellipse;whiteSpace=wrap;html=1;aspect=fixed;" parent="1" vertex="1">
          <mxGeometry x="691.5" y="910.5" width="20" height="20" as="geometry" />
        </mxCell>
        <mxCell id="n92__l8IA7T7h4lLXl1T-999" value="" style="ellipse;whiteSpace=wrap;html=1;aspect=fixed;" parent="1" vertex="1">
          <mxGeometry x="754.5" y="910.5" width="20" height="20" as="geometry" />
        </mxCell>
        <mxCell id="n92__l8IA7T7h4lLXl1T-1000" value="" style="rounded=0;whiteSpace=wrap;html=1;" parent="1" vertex="1">
          <mxGeometry x="166" y="941" width="63" height="41" as="geometry" />
        </mxCell>
        <mxCell id="n92__l8IA7T7h4lLXl1T-1001" value="" style="rounded=0;whiteSpace=wrap;html=1;" parent="1" vertex="1">
          <mxGeometry x="229" y="941" width="63" height="41" as="geometry" />
        </mxCell>
        <mxCell id="n92__l8IA7T7h4lLXl1T-1002" value="" style="rounded=0;whiteSpace=wrap;html=1;" parent="1" vertex="1">
          <mxGeometry x="292" y="941" width="63" height="41" as="geometry" />
        </mxCell>
        <mxCell id="n92__l8IA7T7h4lLXl1T-1003" value="" style="rounded=0;whiteSpace=wrap;html=1;" parent="1" vertex="1">
          <mxGeometry x="355" y="941" width="63" height="41" as="geometry" />
        </mxCell>
        <mxCell id="n92__l8IA7T7h4lLXl1T-1004" value="21" style="rounded=0;whiteSpace=wrap;html=1;" parent="1" vertex="1">
          <mxGeometry x="40" y="941" width="63" height="41" as="geometry" />
        </mxCell>
        <mxCell id="n92__l8IA7T7h4lLXl1T-1005" value="" style="rounded=0;whiteSpace=wrap;html=1;" parent="1" vertex="1">
          <mxGeometry x="103" y="941" width="63" height="41" as="geometry" />
        </mxCell>
        <mxCell id="n92__l8IA7T7h4lLXl1T-1006" value="" style="rounded=0;whiteSpace=wrap;html=1;" parent="1" vertex="1">
          <mxGeometry x="544" y="941" width="63" height="41" as="geometry" />
        </mxCell>
        <mxCell id="n92__l8IA7T7h4lLXl1T-1007" value="" style="rounded=0;whiteSpace=wrap;html=1;" parent="1" vertex="1">
          <mxGeometry x="607" y="941" width="63" height="41" as="geometry" />
        </mxCell>
        <mxCell id="n92__l8IA7T7h4lLXl1T-1008" value="" style="rounded=0;whiteSpace=wrap;html=1;" parent="1" vertex="1">
          <mxGeometry x="670" y="941" width="63" height="41" as="geometry" />
        </mxCell>
        <mxCell id="n92__l8IA7T7h4lLXl1T-1009" value="" style="rounded=0;whiteSpace=wrap;html=1;" parent="1" vertex="1">
          <mxGeometry x="733" y="941" width="63" height="41" as="geometry" />
        </mxCell>
        <mxCell id="n92__l8IA7T7h4lLXl1T-1010" value="46" style="rounded=0;whiteSpace=wrap;html=1;" parent="1" vertex="1">
          <mxGeometry x="418" y="941" width="63" height="41" as="geometry" />
        </mxCell>
        <mxCell id="n92__l8IA7T7h4lLXl1T-1011" value="" style="rounded=0;whiteSpace=wrap;html=1;" parent="1" vertex="1">
          <mxGeometry x="481" y="941" width="63" height="41" as="geometry" />
        </mxCell>
        <mxCell id="n92__l8IA7T7h4lLXl1T-1012" value="" style="ellipse;whiteSpace=wrap;html=1;aspect=fixed;" parent="1" vertex="1">
          <mxGeometry x="124.5" y="951.5" width="20" height="20" as="geometry" />
        </mxCell>
        <mxCell id="n92__l8IA7T7h4lLXl1T-1013" value="" style="ellipse;whiteSpace=wrap;html=1;aspect=fixed;" parent="1" vertex="1">
          <mxGeometry x="187.5" y="951.5" width="20" height="20" as="geometry" />
        </mxCell>
        <mxCell id="n92__l8IA7T7h4lLXl1T-1014" value="" style="ellipse;whiteSpace=wrap;html=1;aspect=fixed;" parent="1" vertex="1">
          <mxGeometry x="250.5" y="951.5" width="20" height="20" as="geometry" />
        </mxCell>
        <mxCell id="n92__l8IA7T7h4lLXl1T-1015" value="" style="ellipse;whiteSpace=wrap;html=1;aspect=fixed;" parent="1" vertex="1">
          <mxGeometry x="313.5" y="951.5" width="20" height="20" as="geometry" />
        </mxCell>
        <mxCell id="n92__l8IA7T7h4lLXl1T-1016" value="" style="ellipse;whiteSpace=wrap;html=1;aspect=fixed;" parent="1" vertex="1">
          <mxGeometry x="376.5" y="951.5" width="20" height="20" as="geometry" />
        </mxCell>
        <mxCell id="n92__l8IA7T7h4lLXl1T-1017" value="" style="ellipse;whiteSpace=wrap;html=1;aspect=fixed;" parent="1" vertex="1">
          <mxGeometry x="502.5" y="951.5" width="20" height="20" as="geometry" />
        </mxCell>
        <mxCell id="n92__l8IA7T7h4lLXl1T-1018" value="" style="ellipse;whiteSpace=wrap;html=1;aspect=fixed;" parent="1" vertex="1">
          <mxGeometry x="565.5" y="951.5" width="20" height="20" as="geometry" />
        </mxCell>
        <mxCell id="n92__l8IA7T7h4lLXl1T-1019" value="" style="ellipse;whiteSpace=wrap;html=1;aspect=fixed;" parent="1" vertex="1">
          <mxGeometry x="628.5" y="951.5" width="20" height="20" as="geometry" />
        </mxCell>
        <mxCell id="n92__l8IA7T7h4lLXl1T-1020" value="" style="ellipse;whiteSpace=wrap;html=1;aspect=fixed;" parent="1" vertex="1">
          <mxGeometry x="691.5" y="951.5" width="20" height="20" as="geometry" />
        </mxCell>
        <mxCell id="n92__l8IA7T7h4lLXl1T-1021" value="" style="ellipse;whiteSpace=wrap;html=1;aspect=fixed;" parent="1" vertex="1">
          <mxGeometry x="754.5" y="951.5" width="20" height="20" as="geometry" />
        </mxCell>
        <mxCell id="n92__l8IA7T7h4lLXl1T-1022" value="" style="rounded=0;whiteSpace=wrap;html=1;" parent="1" vertex="1">
          <mxGeometry x="166" y="982" width="63" height="41" as="geometry" />
        </mxCell>
        <mxCell id="n92__l8IA7T7h4lLXl1T-1023" value="" style="rounded=0;whiteSpace=wrap;html=1;" parent="1" vertex="1">
          <mxGeometry x="229" y="982" width="63" height="41" as="geometry" />
        </mxCell>
        <mxCell id="n92__l8IA7T7h4lLXl1T-1024" value="" style="rounded=0;whiteSpace=wrap;html=1;" parent="1" vertex="1">
          <mxGeometry x="292" y="982" width="63" height="41" as="geometry" />
        </mxCell>
        <mxCell id="n92__l8IA7T7h4lLXl1T-1025" value="" style="rounded=0;whiteSpace=wrap;html=1;" parent="1" vertex="1">
          <mxGeometry x="355" y="982" width="63" height="41" as="geometry" />
        </mxCell>
        <mxCell id="n92__l8IA7T7h4lLXl1T-1026" value="22" style="rounded=0;whiteSpace=wrap;html=1;" parent="1" vertex="1">
          <mxGeometry x="40" y="982" width="63" height="41" as="geometry" />
        </mxCell>
        <mxCell id="n92__l8IA7T7h4lLXl1T-1027" value="" style="rounded=0;whiteSpace=wrap;html=1;" parent="1" vertex="1">
          <mxGeometry x="103" y="982" width="63" height="41" as="geometry" />
        </mxCell>
        <mxCell id="n92__l8IA7T7h4lLXl1T-1028" value="" style="rounded=0;whiteSpace=wrap;html=1;" parent="1" vertex="1">
          <mxGeometry x="544" y="982" width="63" height="41" as="geometry" />
        </mxCell>
        <mxCell id="n92__l8IA7T7h4lLXl1T-1029" value="" style="rounded=0;whiteSpace=wrap;html=1;" parent="1" vertex="1">
          <mxGeometry x="607" y="982" width="63" height="41" as="geometry" />
        </mxCell>
        <mxCell id="n92__l8IA7T7h4lLXl1T-1030" value="" style="rounded=0;whiteSpace=wrap;html=1;" parent="1" vertex="1">
          <mxGeometry x="670" y="982" width="63" height="41" as="geometry" />
        </mxCell>
        <mxCell id="n92__l8IA7T7h4lLXl1T-1031" value="" style="rounded=0;whiteSpace=wrap;html=1;" parent="1" vertex="1">
          <mxGeometry x="733" y="982" width="63" height="41" as="geometry" />
        </mxCell>
        <mxCell id="n92__l8IA7T7h4lLXl1T-1032" value="47" style="rounded=0;whiteSpace=wrap;html=1;" parent="1" vertex="1">
          <mxGeometry x="418" y="982" width="63" height="41" as="geometry" />
        </mxCell>
        <mxCell id="n92__l8IA7T7h4lLXl1T-1033" value="" style="rounded=0;whiteSpace=wrap;html=1;" parent="1" vertex="1">
          <mxGeometry x="481" y="982" width="63" height="41" as="geometry" />
        </mxCell>
        <mxCell id="n92__l8IA7T7h4lLXl1T-1034" value="" style="ellipse;whiteSpace=wrap;html=1;aspect=fixed;" parent="1" vertex="1">
          <mxGeometry x="124.5" y="992.5" width="20" height="20" as="geometry" />
        </mxCell>
        <mxCell id="n92__l8IA7T7h4lLXl1T-1035" value="" style="ellipse;whiteSpace=wrap;html=1;aspect=fixed;" parent="1" vertex="1">
          <mxGeometry x="187.5" y="992.5" width="20" height="20" as="geometry" />
        </mxCell>
        <mxCell id="n92__l8IA7T7h4lLXl1T-1036" value="" style="ellipse;whiteSpace=wrap;html=1;aspect=fixed;" parent="1" vertex="1">
          <mxGeometry x="250.5" y="992.5" width="20" height="20" as="geometry" />
        </mxCell>
        <mxCell id="n92__l8IA7T7h4lLXl1T-1037" value="" style="ellipse;whiteSpace=wrap;html=1;aspect=fixed;" parent="1" vertex="1">
          <mxGeometry x="313.5" y="992.5" width="20" height="20" as="geometry" />
        </mxCell>
        <mxCell id="n92__l8IA7T7h4lLXl1T-1038" value="" style="ellipse;whiteSpace=wrap;html=1;aspect=fixed;" parent="1" vertex="1">
          <mxGeometry x="376.5" y="992.5" width="20" height="20" as="geometry" />
        </mxCell>
        <mxCell id="n92__l8IA7T7h4lLXl1T-1039" value="" style="ellipse;whiteSpace=wrap;html=1;aspect=fixed;" parent="1" vertex="1">
          <mxGeometry x="502.5" y="992.5" width="20" height="20" as="geometry" />
        </mxCell>
        <mxCell id="n92__l8IA7T7h4lLXl1T-1040" value="" style="ellipse;whiteSpace=wrap;html=1;aspect=fixed;" parent="1" vertex="1">
          <mxGeometry x="565.5" y="992.5" width="20" height="20" as="geometry" />
        </mxCell>
        <mxCell id="n92__l8IA7T7h4lLXl1T-1041" value="" style="ellipse;whiteSpace=wrap;html=1;aspect=fixed;" parent="1" vertex="1">
          <mxGeometry x="628.5" y="992.5" width="20" height="20" as="geometry" />
        </mxCell>
        <mxCell id="n92__l8IA7T7h4lLXl1T-1042" value="" style="ellipse;whiteSpace=wrap;html=1;aspect=fixed;" parent="1" vertex="1">
          <mxGeometry x="691.5" y="992.5" width="20" height="20" as="geometry" />
        </mxCell>
        <mxCell id="n92__l8IA7T7h4lLXl1T-1043" value="" style="ellipse;whiteSpace=wrap;html=1;aspect=fixed;" parent="1" vertex="1">
          <mxGeometry x="754.5" y="992.5" width="20" height="20" as="geometry" />
        </mxCell>
        <mxCell id="n92__l8IA7T7h4lLXl1T-1044" value="" style="rounded=0;whiteSpace=wrap;html=1;" parent="1" vertex="1">
          <mxGeometry x="166" y="1023" width="63" height="41" as="geometry" />
        </mxCell>
        <mxCell id="n92__l8IA7T7h4lLXl1T-1045" value="" style="rounded=0;whiteSpace=wrap;html=1;" parent="1" vertex="1">
          <mxGeometry x="229" y="1023" width="63" height="41" as="geometry" />
        </mxCell>
        <mxCell id="n92__l8IA7T7h4lLXl1T-1046" value="" style="rounded=0;whiteSpace=wrap;html=1;" parent="1" vertex="1">
          <mxGeometry x="292" y="1023" width="63" height="41" as="geometry" />
        </mxCell>
        <mxCell id="n92__l8IA7T7h4lLXl1T-1047" value="" style="rounded=0;whiteSpace=wrap;html=1;" parent="1" vertex="1">
          <mxGeometry x="355" y="1023" width="63" height="41" as="geometry" />
        </mxCell>
        <mxCell id="n92__l8IA7T7h4lLXl1T-1048" value="23" style="rounded=0;whiteSpace=wrap;html=1;" parent="1" vertex="1">
          <mxGeometry x="40" y="1023" width="63" height="41" as="geometry" />
        </mxCell>
        <mxCell id="n92__l8IA7T7h4lLXl1T-1049" value="" style="rounded=0;whiteSpace=wrap;html=1;" parent="1" vertex="1">
          <mxGeometry x="103" y="1023" width="63" height="41" as="geometry" />
        </mxCell>
        <mxCell id="n92__l8IA7T7h4lLXl1T-1050" value="" style="rounded=0;whiteSpace=wrap;html=1;" parent="1" vertex="1">
          <mxGeometry x="544" y="1023" width="63" height="41" as="geometry" />
        </mxCell>
        <mxCell id="n92__l8IA7T7h4lLXl1T-1051" value="" style="rounded=0;whiteSpace=wrap;html=1;" parent="1" vertex="1">
          <mxGeometry x="607" y="1023" width="63" height="41" as="geometry" />
        </mxCell>
        <mxCell id="n92__l8IA7T7h4lLXl1T-1052" value="" style="rounded=0;whiteSpace=wrap;html=1;" parent="1" vertex="1">
          <mxGeometry x="670" y="1023" width="63" height="41" as="geometry" />
        </mxCell>
        <mxCell id="n92__l8IA7T7h4lLXl1T-1053" value="" style="rounded=0;whiteSpace=wrap;html=1;" parent="1" vertex="1">
          <mxGeometry x="733" y="1023" width="63" height="41" as="geometry" />
        </mxCell>
        <mxCell id="n92__l8IA7T7h4lLXl1T-1054" value="48" style="rounded=0;whiteSpace=wrap;html=1;" parent="1" vertex="1">
          <mxGeometry x="418" y="1023" width="63" height="41" as="geometry" />
        </mxCell>
        <mxCell id="n92__l8IA7T7h4lLXl1T-1055" value="" style="rounded=0;whiteSpace=wrap;html=1;" parent="1" vertex="1">
          <mxGeometry x="481" y="1023" width="63" height="41" as="geometry" />
        </mxCell>
        <mxCell id="n92__l8IA7T7h4lLXl1T-1056" value="" style="ellipse;whiteSpace=wrap;html=1;aspect=fixed;" parent="1" vertex="1">
          <mxGeometry x="124.5" y="1033.5" width="20" height="20" as="geometry" />
        </mxCell>
        <mxCell id="n92__l8IA7T7h4lLXl1T-1057" value="" style="ellipse;whiteSpace=wrap;html=1;aspect=fixed;" parent="1" vertex="1">
          <mxGeometry x="187.5" y="1033.5" width="20" height="20" as="geometry" />
        </mxCell>
        <mxCell id="n92__l8IA7T7h4lLXl1T-1058" value="" style="ellipse;whiteSpace=wrap;html=1;aspect=fixed;" parent="1" vertex="1">
          <mxGeometry x="250.5" y="1033.5" width="20" height="20" as="geometry" />
        </mxCell>
        <mxCell id="n92__l8IA7T7h4lLXl1T-1059" value="" style="ellipse;whiteSpace=wrap;html=1;aspect=fixed;" parent="1" vertex="1">
          <mxGeometry x="313.5" y="1033.5" width="20" height="20" as="geometry" />
        </mxCell>
        <mxCell id="n92__l8IA7T7h4lLXl1T-1060" value="" style="ellipse;whiteSpace=wrap;html=1;aspect=fixed;" parent="1" vertex="1">
          <mxGeometry x="376.5" y="1033.5" width="20" height="20" as="geometry" />
        </mxCell>
        <mxCell id="n92__l8IA7T7h4lLXl1T-1061" value="" style="ellipse;whiteSpace=wrap;html=1;aspect=fixed;" parent="1" vertex="1">
          <mxGeometry x="502.5" y="1033.5" width="20" height="20" as="geometry" />
        </mxCell>
        <mxCell id="n92__l8IA7T7h4lLXl1T-1062" value="" style="ellipse;whiteSpace=wrap;html=1;aspect=fixed;" parent="1" vertex="1">
          <mxGeometry x="565.5" y="1033.5" width="20" height="20" as="geometry" />
        </mxCell>
        <mxCell id="n92__l8IA7T7h4lLXl1T-1063" value="" style="ellipse;whiteSpace=wrap;html=1;aspect=fixed;" parent="1" vertex="1">
          <mxGeometry x="628.5" y="1033.5" width="20" height="20" as="geometry" />
        </mxCell>
        <mxCell id="n92__l8IA7T7h4lLXl1T-1064" value="" style="ellipse;whiteSpace=wrap;html=1;aspect=fixed;" parent="1" vertex="1">
          <mxGeometry x="691.5" y="1033.5" width="20" height="20" as="geometry" />
        </mxCell>
        <mxCell id="n92__l8IA7T7h4lLXl1T-1065" value="" style="ellipse;whiteSpace=wrap;html=1;aspect=fixed;" parent="1" vertex="1">
          <mxGeometry x="754.5" y="1033.5" width="20" height="20" as="geometry" />
        </mxCell>
        <mxCell id="n92__l8IA7T7h4lLXl1T-1066" value="" style="rounded=0;whiteSpace=wrap;html=1;" parent="1" vertex="1">
          <mxGeometry x="166" y="1064" width="63" height="41" as="geometry" />
        </mxCell>
        <mxCell id="n92__l8IA7T7h4lLXl1T-1067" value="" style="rounded=0;whiteSpace=wrap;html=1;" parent="1" vertex="1">
          <mxGeometry x="229" y="1064" width="63" height="41" as="geometry" />
        </mxCell>
        <mxCell id="n92__l8IA7T7h4lLXl1T-1068" value="" style="rounded=0;whiteSpace=wrap;html=1;" parent="1" vertex="1">
          <mxGeometry x="292" y="1064" width="63" height="41" as="geometry" />
        </mxCell>
        <mxCell id="n92__l8IA7T7h4lLXl1T-1069" value="" style="rounded=0;whiteSpace=wrap;html=1;" parent="1" vertex="1">
          <mxGeometry x="355" y="1064" width="63" height="41" as="geometry" />
        </mxCell>
        <mxCell id="n92__l8IA7T7h4lLXl1T-1070" value="24" style="rounded=0;whiteSpace=wrap;html=1;" parent="1" vertex="1">
          <mxGeometry x="40" y="1064" width="63" height="41" as="geometry" />
        </mxCell>
        <mxCell id="n92__l8IA7T7h4lLXl1T-1071" value="" style="rounded=0;whiteSpace=wrap;html=1;" parent="1" vertex="1">
          <mxGeometry x="103" y="1064" width="63" height="41" as="geometry" />
        </mxCell>
        <mxCell id="n92__l8IA7T7h4lLXl1T-1072" value="" style="rounded=0;whiteSpace=wrap;html=1;" parent="1" vertex="1">
          <mxGeometry x="544" y="1064" width="63" height="41" as="geometry" />
        </mxCell>
        <mxCell id="n92__l8IA7T7h4lLXl1T-1073" value="" style="rounded=0;whiteSpace=wrap;html=1;" parent="1" vertex="1">
          <mxGeometry x="607" y="1064" width="63" height="41" as="geometry" />
        </mxCell>
        <mxCell id="n92__l8IA7T7h4lLXl1T-1074" value="" style="rounded=0;whiteSpace=wrap;html=1;" parent="1" vertex="1">
          <mxGeometry x="670" y="1064" width="63" height="41" as="geometry" />
        </mxCell>
        <mxCell id="n92__l8IA7T7h4lLXl1T-1075" value="" style="rounded=0;whiteSpace=wrap;html=1;" parent="1" vertex="1">
          <mxGeometry x="733" y="1064" width="63" height="41" as="geometry" />
        </mxCell>
        <mxCell id="n92__l8IA7T7h4lLXl1T-1076" value="49" style="rounded=0;whiteSpace=wrap;html=1;" parent="1" vertex="1">
          <mxGeometry x="418" y="1064" width="63" height="41" as="geometry" />
        </mxCell>
        <mxCell id="n92__l8IA7T7h4lLXl1T-1077" value="" style="rounded=0;whiteSpace=wrap;html=1;" parent="1" vertex="1">
          <mxGeometry x="481" y="1064" width="63" height="41" as="geometry" />
        </mxCell>
        <mxCell id="n92__l8IA7T7h4lLXl1T-1078" value="" style="ellipse;whiteSpace=wrap;html=1;aspect=fixed;" parent="1" vertex="1">
          <mxGeometry x="124.5" y="1074.5" width="20" height="20" as="geometry" />
        </mxCell>
        <mxCell id="n92__l8IA7T7h4lLXl1T-1079" value="" style="ellipse;whiteSpace=wrap;html=1;aspect=fixed;" parent="1" vertex="1">
          <mxGeometry x="187.5" y="1074.5" width="20" height="20" as="geometry" />
        </mxCell>
        <mxCell id="n92__l8IA7T7h4lLXl1T-1080" value="" style="ellipse;whiteSpace=wrap;html=1;aspect=fixed;" parent="1" vertex="1">
          <mxGeometry x="250.5" y="1074.5" width="20" height="20" as="geometry" />
        </mxCell>
        <mxCell id="n92__l8IA7T7h4lLXl1T-1081" value="" style="ellipse;whiteSpace=wrap;html=1;aspect=fixed;" parent="1" vertex="1">
          <mxGeometry x="313.5" y="1074.5" width="20" height="20" as="geometry" />
        </mxCell>
        <mxCell id="n92__l8IA7T7h4lLXl1T-1082" value="" style="ellipse;whiteSpace=wrap;html=1;aspect=fixed;" parent="1" vertex="1">
          <mxGeometry x="376.5" y="1074.5" width="20" height="20" as="geometry" />
        </mxCell>
        <mxCell id="n92__l8IA7T7h4lLXl1T-1083" value="" style="ellipse;whiteSpace=wrap;html=1;aspect=fixed;" parent="1" vertex="1">
          <mxGeometry x="502.5" y="1074.5" width="20" height="20" as="geometry" />
        </mxCell>
        <mxCell id="n92__l8IA7T7h4lLXl1T-1084" value="" style="ellipse;whiteSpace=wrap;html=1;aspect=fixed;" parent="1" vertex="1">
          <mxGeometry x="565.5" y="1074.5" width="20" height="20" as="geometry" />
        </mxCell>
        <mxCell id="n92__l8IA7T7h4lLXl1T-1085" value="" style="ellipse;whiteSpace=wrap;html=1;aspect=fixed;" parent="1" vertex="1">
          <mxGeometry x="628.5" y="1074.5" width="20" height="20" as="geometry" />
        </mxCell>
        <mxCell id="n92__l8IA7T7h4lLXl1T-1086" value="" style="ellipse;whiteSpace=wrap;html=1;aspect=fixed;" parent="1" vertex="1">
          <mxGeometry x="691.5" y="1074.5" width="20" height="20" as="geometry" />
        </mxCell>
        <mxCell id="n92__l8IA7T7h4lLXl1T-1087" value="" style="ellipse;whiteSpace=wrap;html=1;aspect=fixed;" parent="1" vertex="1">
          <mxGeometry x="754.5" y="1074.5" width="20" height="20" as="geometry" />
        </mxCell>
        <mxCell id="n92__l8IA7T7h4lLXl1T-1088" value="" style="rounded=0;whiteSpace=wrap;html=1;" parent="1" vertex="1">
          <mxGeometry x="166" y="1105" width="63" height="41" as="geometry" />
        </mxCell>
        <mxCell id="n92__l8IA7T7h4lLXl1T-1089" value="" style="rounded=0;whiteSpace=wrap;html=1;" parent="1" vertex="1">
          <mxGeometry x="229" y="1105" width="63" height="41" as="geometry" />
        </mxCell>
        <mxCell id="n92__l8IA7T7h4lLXl1T-1090" value="" style="rounded=0;whiteSpace=wrap;html=1;" parent="1" vertex="1">
          <mxGeometry x="292" y="1105" width="63" height="41" as="geometry" />
        </mxCell>
        <mxCell id="n92__l8IA7T7h4lLXl1T-1091" value="" style="rounded=0;whiteSpace=wrap;html=1;" parent="1" vertex="1">
          <mxGeometry x="355" y="1105" width="63" height="41" as="geometry" />
        </mxCell>
        <mxCell id="n92__l8IA7T7h4lLXl1T-1092" value="25" style="rounded=0;whiteSpace=wrap;html=1;" parent="1" vertex="1">
          <mxGeometry x="40" y="1105" width="63" height="41" as="geometry" />
        </mxCell>
        <mxCell id="n92__l8IA7T7h4lLXl1T-1093" value="" style="rounded=0;whiteSpace=wrap;html=1;" parent="1" vertex="1">
          <mxGeometry x="103" y="1105" width="63" height="41" as="geometry" />
        </mxCell>
        <mxCell id="n92__l8IA7T7h4lLXl1T-1094" value="" style="rounded=0;whiteSpace=wrap;html=1;" parent="1" vertex="1">
          <mxGeometry x="544" y="1105" width="63" height="41" as="geometry" />
        </mxCell>
        <mxCell id="n92__l8IA7T7h4lLXl1T-1095" value="" style="rounded=0;whiteSpace=wrap;html=1;" parent="1" vertex="1">
          <mxGeometry x="607" y="1105" width="63" height="41" as="geometry" />
        </mxCell>
        <mxCell id="n92__l8IA7T7h4lLXl1T-1096" value="" style="rounded=0;whiteSpace=wrap;html=1;" parent="1" vertex="1">
          <mxGeometry x="670" y="1105" width="63" height="41" as="geometry" />
        </mxCell>
        <mxCell id="n92__l8IA7T7h4lLXl1T-1097" value="" style="rounded=0;whiteSpace=wrap;html=1;" parent="1" vertex="1">
          <mxGeometry x="733" y="1105" width="63" height="41" as="geometry" />
        </mxCell>
        <mxCell id="n92__l8IA7T7h4lLXl1T-1098" value="50" style="rounded=0;whiteSpace=wrap;html=1;" parent="1" vertex="1">
          <mxGeometry x="418" y="1105" width="63" height="41" as="geometry" />
        </mxCell>
        <mxCell id="n92__l8IA7T7h4lLXl1T-1099" value="" style="rounded=0;whiteSpace=wrap;html=1;" parent="1" vertex="1">
          <mxGeometry x="481" y="1105" width="63" height="41" as="geometry" />
        </mxCell>
        <mxCell id="n92__l8IA7T7h4lLXl1T-1100" value="" style="ellipse;whiteSpace=wrap;html=1;aspect=fixed;" parent="1" vertex="1">
          <mxGeometry x="124.5" y="1115.5" width="20" height="20" as="geometry" />
        </mxCell>
        <mxCell id="n92__l8IA7T7h4lLXl1T-1101" value="" style="ellipse;whiteSpace=wrap;html=1;aspect=fixed;" parent="1" vertex="1">
          <mxGeometry x="187.5" y="1115.5" width="20" height="20" as="geometry" />
        </mxCell>
        <mxCell id="n92__l8IA7T7h4lLXl1T-1102" value="" style="ellipse;whiteSpace=wrap;html=1;aspect=fixed;" parent="1" vertex="1">
          <mxGeometry x="250.5" y="1115.5" width="20" height="20" as="geometry" />
        </mxCell>
        <mxCell id="n92__l8IA7T7h4lLXl1T-1103" value="" style="ellipse;whiteSpace=wrap;html=1;aspect=fixed;" parent="1" vertex="1">
          <mxGeometry x="313.5" y="1115.5" width="20" height="20" as="geometry" />
        </mxCell>
        <mxCell id="n92__l8IA7T7h4lLXl1T-1104" value="" style="ellipse;whiteSpace=wrap;html=1;aspect=fixed;" parent="1" vertex="1">
          <mxGeometry x="376.5" y="1115.5" width="20" height="20" as="geometry" />
        </mxCell>
        <mxCell id="n92__l8IA7T7h4lLXl1T-1105" value="" style="ellipse;whiteSpace=wrap;html=1;aspect=fixed;" parent="1" vertex="1">
          <mxGeometry x="502.5" y="1115.5" width="20" height="20" as="geometry" />
        </mxCell>
        <mxCell id="n92__l8IA7T7h4lLXl1T-1106" value="" style="ellipse;whiteSpace=wrap;html=1;aspect=fixed;" parent="1" vertex="1">
          <mxGeometry x="565.5" y="1115.5" width="20" height="20" as="geometry" />
        </mxCell>
        <mxCell id="n92__l8IA7T7h4lLXl1T-1107" value="" style="ellipse;whiteSpace=wrap;html=1;aspect=fixed;" parent="1" vertex="1">
          <mxGeometry x="628.5" y="1115.5" width="20" height="20" as="geometry" />
        </mxCell>
        <mxCell id="n92__l8IA7T7h4lLXl1T-1108" value="" style="ellipse;whiteSpace=wrap;html=1;aspect=fixed;" parent="1" vertex="1">
          <mxGeometry x="691.5" y="1115.5" width="20" height="20" as="geometry" />
        </mxCell>
        <mxCell id="n92__l8IA7T7h4lLXl1T-1109" value="" style="ellipse;whiteSpace=wrap;html=1;aspect=fixed;" parent="1" vertex="1">
          <mxGeometry x="754.5" y="1115.5" width="20" height="20" as="geometry" />
        </mxCell>
      </root>
    </mxGraphModel>
  </diagram>
</mxfile>
